<svg xmlns="http://www.w3.org/2000/svg" id="Camada_2" viewBox="0 0 915.59 145.82"><defs><style>      .cls-1 {        fill: #fff;      }    </style></defs><g id="Camada_1-2" data-name="Camada_1"><g><path class="cls-1" d="M75.86,25.45c-2.82,6.44-5.64,12.89-8.46,19.34-.31.7-.64,1.39-.88,2.11-.3.91-1.22.94-1.71.79-.8-.25-.82-1.1-.49-1.86,1.15-2.62,2.32-5.23,3.47-7.85,2.09-4.75,4.16-9.51,6.26-14.26.15-.34.22-.61.03-.96-.76-1.36-.89-2.89-1.17-4.55-.67.49-1.32.87-1.87,1.37-2.81,2.58-5.6,5.17-8.37,7.8-.63.6-1.36,1.1-2.02.48-.73-.68-.33-1.5.37-2.14,3.88-3.57,7.74-7.17,11.63-10.73.87-.79,1.15-1.18-.05-2.08-3.01-2.27-5.85-4.76-8.73-7.21-.58-.49-.74-.42-1.19.17-3.6,4.61-7.26,9.18-10.9,13.76-1.2,1.51-2.41,3.03-3.63,4.53-.54.66-.59,1.18.16,1.8,1.68,1.4,3.35,2.82,4.91,4.35,2.21,2.16,3.4,5.63,1.4,8.92-4.01,6.6-8.14,13.12-12.24,19.66-4.2,6.71-8.39,13.42-12.67,20.08-.87,1.35.09,2.34.34,3.4.55,2.37.67,4.72.05,7.01-.28,1.04.11,1.12.78,1.38,3.71,1.42,7.41,2.86,11.12,4.28,4.99,1.92,9.98,3.84,14.98,5.74.67.25,1.38.35,2.12.35,8.81-.02,17.61-.05,26.42.02,1.26.01,1.6-.53,1.66-1.54.33-5.86,2.42-11.07,5.84-15.78.45-.62.53-1.02-.11-1.74-2.17-2.44-4.77-3.34-8.01-3.27-7.23.14-14.46.09-21.7.02-2.48-.02-4.75.57-6.92,1.66-5.84,2.92-11.66,5.87-17.5,8.78-.65.33-1.46.79-1.94-.27-.41-.9-.03-1.48.86-1.8.18-.06.33-.2.5-.28,3.09-1.56,6.16-3.16,9.27-4.67.88-.43,1.28-1.01,1.7-1.9,1.65-3.54,3.14-7.15,4.72-10.72,1.68-3.79,3.29-7.61,4.98-11.4.23-.52.3-1.3.98-1.45.48-.11,1.11-.25,1.51.27.33.43.24.97.05,1.4-1.45,3.36-2.95,6.71-4.43,10.07-1.64,3.72-3.27,7.45-4.99,11.37,2.05-.71,3.63-1.85,5.46-2.48,1.71-.59,3.42-.9,5.22-.9,7.77,0,15.55.04,23.32-.01,3.29-.02,6.04,1.06,8.12,3.63.8.99,1.28.87,2.11-.02,4.44-4.77,10.05-7.71,16.33-8.77,8.96-1.51,17.45.22,24.86,5.76,3.4,2.54,6.24,5.67,8.31,9.44.31.56.72,1.1.4,1.74-.18.36-.5.71-1.03.73-.66.02-.95-.4-1.22-.88-1.46-2.65-3.23-5.09-5.48-7.09-4.09-3.65-8.77-6.13-14.23-7.17-5.25-1-10.37-.76-15.38.97-4.36,1.51-8.19,3.95-11.41,7.31-.51.53-.45.79.02,1.29,2.32,2.49,2.23,2.43,4.74.21,3.17-2.8,6.86-4.65,11.06-5.3,5.99-.92,11.82-.46,17.17,2.67,6.43,3.76,10.49,9.28,12.05,16.66,1.17,5.51.42,10.75-1.94,15.75-2.33,4.94-6.13,8.57-10.85,11.24-.47.27-1.23.38-1.56-.28-.4-.8-.18-1.51.66-1.97,2.31-1.25,4.4-2.8,6.16-4.77,2.91-3.26,4.8-6.97,5.46-11.36.95-6.27-.17-12.05-3.95-17.12-3.72-4.98-8.7-7.93-14.97-8.81-4.96-.7-9.55.13-13.92,2.43-1.97,1.04-3.7,2.42-5.29,3.98-.51.5-.68.87-.05,1.42.82.71,1.49,1.98,2.35,2.11.79.11,1.46-1.29,2.27-1.96,3.37-2.76,7.1-4.32,11.49-4.09.64.03,1.38-.1,1.36.86-.01.92-.61,1.16-1.46,1.23-3.12.29-6.1,1-8.72,2.89-3.68,2.65-5.92,6.17-6.64,10.65-.06.37-.17.73-.26,1.1.1.04.19.11.28.12,1.23,0,2.6.35,3.65-.09.96-.41.63-1.98,1.09-2.97,1.83-3.97,4.74-6.72,9.17-7.22,4.75-.54,8.77,1.05,11.45,5.21,4.33,6.72,1.03,15.84-7.33,17.67-6.92,1.51-12.39-2.65-13.87-9.44-.14-.63-.26-.8-.86-.78-1.17.04-2.35.01-3.5.01.28,3.36,1.43,6.33,3.47,8.87,2.83,3.51,6.5,5.61,11.08,5.92,5.07.34,9.4-1.32,12.89-5,2.3-2.42,3.61-5.33,4.08-8.69.57-4.16-.36-7.88-2.69-11.3-.52-.76-1.08-1.7-.24-2.32.89-.65,1.54.05,2.18.93,2.41,3.34,3.57,7.13,3.32,11.12-.51,8.21-5.15,14.52-13.61,17-5.59,1.64-10.81.47-15.48-2.99-4.2-3.11-6.56-7.31-7.18-12.5-.08-.67-.38-1.22-1.23-1.03-.05.01-.1,0-.15,0-3.39-.06-3.47.07-2.71,3.38,1.02,4.4,3.08,8.26,6.18,11.52,1.02,1.08,2.28,1.94,3.49,2.82.36.26.71.52.97.85.57.72.24,1.43-.65,1.55-.6.08-1.17-.03-1.65-.37-5.9-4.22-9.67-9.78-10.75-17.06-.11-.71-.39-1.4-.29-2.15.04-.35-.1-.54-.49-.54-1.13,0-2.26.02-3.39,0-.48,0-.59.22-.53.63.63,4.94,1.99,9.61,4.69,13.86,4.33,6.83,10.5,11.23,18.28,12.92,8.32,1.81,16.19.14,23.17-4.9,6.45-4.65,10.33-10.92,11.77-18.78.3-1.63-.07-3.29.5-4.89.24-.67.44-1.28,1.2-1.17.76.11,1.27.67,1.18,1.51-.39,3.9-.77,7.82-2.37,11.46-2.14,4.89-5.12,9.12-9.32,12.53-3.98,3.22-8.4,5.46-13.37,6.51-3.89.82-7.81,1.15-11.78.25-1.87-.42-3.83-.47-5.75-.65-3.75-.35-7.49-.76-11.23-1.12-2.36-.23-4.72-.5-7.08-.69-3.41-.27-6.79-.87-10.2-1.1-2.27-.15-4.53-.43-6.79-.66-3.55-.36-7.1-.67-10.65-1.1-2.11-.25-4.23-.59-6.35-.62-5.94-.1-11.18-1.88-15.9-5.55-4.39-3.4-8.98-6.53-13.52-9.74-6.56-4.64-13.3-9.04-19.67-13.92-5.67-4.35-7.46-11.04-4.99-17.77.76-2.07,2.1-3.74,3.53-5.39,2.41-2.78,4.68-5.68,6.98-8.55,2.47-3.09,4.91-6.22,7.36-9.33,2.87-3.64,5.73-7.29,8.61-10.92,2.43-3.07,4.9-6.12,7.33-9.2,2.88-3.64,5.73-7.29,8.61-10.93,2.43-3.07,4.9-6.12,7.33-9.19,2.88-3.63,5.74-7.29,8.61-10.93.87-1.1,1.75-2.2,2.64-3.29.21-.26.45-.52.86-.46,1.42.21,2.79-.27,4.21-.31,4.38-.14,8.77-.26,13.14-.61,3.3-.26,6.59-.42,9.89-.6,3.4-.19,6.8-.38,10.19-.62,1.85-.13,3.7-.18,5.54-.21,2.91-.04,4.64,1.31,5.17,4.15.69,3.71,1.74,7.33,2.59,11,1.43,6.16-1.74,12.39-8.27,14.27-2.63.76-5.34.13-7.6-1.76-2.44-2.04-4.95-3.99-7.42-6-.43-.35-.67-.31-.83.21-1.55,5.05-8.87,7.85-13.53,3.57-.02-.02-.09,0-.18.02ZM102.89,129.81c-1.85-1.11-3.44-2.14-4.84-3.42-3.76-3.42-6.91-7.3-8.73-12.12-.3-.79-.74-.97-1.51-.95-2.06.05-4.13.03-6.2,0-.42,0-.91.14-1.24-.25-.27-.32-.62-.69-.49-1.12.2-.66.75-.98,1.44-.98,1.92,0,3.84,0,5.75,0,.7,0,1.18.12.88-1.02-.41-1.56-.95-3.16-.74-4.82.17-1.36-.4-1.6-1.65-1.59-8.85.06-17.71.03-26.56.02-.72,0-1.41,0-2.14-.28-8.95-3.44-17.93-6.8-26.88-10.28-.9-.35-1.16-.09-1.5.56-1.1,2.04-2.66,3.61-4.54,4.96-2.7,1.93-5.77,2.66-9.15,3.04,2.3,1.67,4.41,3.22,6.55,4.74,2.18,1.55,4.39,3.06,6.57,4.61,3.9,2.78,7.76,5.61,11.69,8.35,2.64,1.84,5.13,4.06,8.3,4.92,3.96,1.07,8.09,1.07,12.15,1.52,2.36.26,4.73.36,7.08.67.6.08,1.14.31,1.77.09-.22-.71-.72-1.06-1.14-1.43-3.14-2.75-6-5.79-9-8.69-1.12-1.09-1.38-2.29-.88-3.68.5-1.4,1.69-1.73,3.02-1.73,3.74,0,7.48-.01,11.21,0,.85,0,1.83-.16,1.8,1.24-.03,1.31-.97,1.11-1.75,1.11-3.59.02-7.18,0-10.77.02-.44,0-1.05-.31-1.32.24-.32.66.24,1.08.66,1.48,2.58,2.48,5.16,4.96,7.73,7.45,1.27,1.23,2.53,2.49,3.76,3.76.65.67,1.37.93,2.32.96,2.32.07,4.62.4,6.93.63,2.73.27,5.47.56,8.21.84,2.16.22,4.32.47,6.49.67,2.15.19,4.27.6,6.72.46ZM109.53,8.15c-.32.19-.44.25-.56.33-1.83,1.29-3.62,1.33-5.44.12-1.68-1.12-2.5-3.12-1.97-5.13.2-.77-.08-.85-.68-.82-2.04.1-4.08.13-6.12.22-5.09.25-10.18.59-15.26.94-2.92.2-5.86.09-8.77.37-1.46.14-2.94.16-4.72.3,3.15,2.59,6.08,4.94,8.93,7.38.74.63,1.16.61,1.99.1,4.9-3.03,11.18-.78,12.8,5.07.26.96.54,1.73,1.27,2.3,2.64,2.09,5.33,4.11,7.95,6.22,2.58,2.08,5.62,2.28,8.33.47,3.16-2.11,4.69-5.17,4.31-8.84-.31-3-1.33-5.93-2.06-9.03ZM11.01,71.01c2.06-.2,4.06.02,6.04-.03.57-.01.79-.47,1.07-.86,2.84-3.89,5.67-7.79,8.53-11.66.44-.59.99-1.2,1.83-.58.82.6.66,1.19.08,1.97-2.33,3.12-4.59,6.29-6.85,9.46-1.64,2.3-1.6,2.26.98,3.52.7.34.83.16,1.21-.35,2.46-3.33,5.03-6.59,7.44-9.96.62-.87,1.21-1.34,2.1-.82,1.22.7.34,1.53-.13,2.17-2.37,3.22-4.8,6.4-7.18,9.62-.3.41-.96.8-.37,1.48.74.84,1.47,1.68,2.24,2.56,1.63-2.63,3.21-5.21,4.81-7.77,1.6-2.56,3.2-5.12,4.81-7.67.43-.69,1.15-1.34,1.25-2.08.12-.89-1.06-1.05-1.62-1.59-2.8-2.73-5.7-5.35-8.54-8.04-.56-.53-1.08-.59-1.39.11-.28.63-.83.96-1.21,1.45-2.85,3.66-5.72,7.3-8.6,10.94-2.15,2.72-4.32,5.42-6.48,8.14ZM15.12,73.36c-3.35-.25-6.25,1.02-8.68,3.29-3.95,3.69-5.23,9.49-2.99,14.63,2.09,4.78,6.35,7.76,11.62,7.78,3.82.02,7.03-1.53,9.67-4.36,2.49-2.67,2.51-2.59-.84-3.96-.97-.4-1.19-.19-1.78.55-2.45,3.08-5.86,4.17-9.53,3.02-4.65-1.46-6.62-6.1-5.88-9.56,1.02-4.77,4.88-8.09,10.42-6.97,3.52.71,6.48,3.69,6.57,7.51.07,2.78.03,2.76,2.6,3.85.34.14.65.15.97.19.34.04.53-.08.59-.46.35-1.97.41-3.96-.09-5.88-1.42-5.47-6.53-9.99-12.66-9.62ZM114.22,103.53c-1.38,0-2.75,0-4.13,0-.49,0-.92,0-.73.69,1.49,5.62,6.19,8.36,11.65,7.03,3.53-.87,6.94-4.53,6.68-9.44-.22-4.24-3.51-8.22-8.26-8.62-4.67-.4-8.66,2.2-9.91,6.93-.27,1.03-.07,1.06.74,1.05,2.65-.02,5.31,0,7.96,0,.79,0,1.39.29,1.42,1.13.03.91-.59,1.25-1.44,1.25-1.33,0-2.65,0-3.98,0ZM46.47,47.84c-.03-.55-.4-.75-.68-1.02-1.63-1.55-3.2-3.17-4.93-4.61-1.17-.98-2.25-2.02-3.33-3.08-.37-.36-.69-.64-1.15-.06-2.19,2.77-4.42,5.51-6.61,8.28-.24.3-.59.72-.06,1.1,3.58,2.62,6.53,5.96,9.92,8.81.59.49.74.44,1.13-.19,1.79-2.95,3.64-5.86,5.47-8.79.1-.16.19-.32.24-.43ZM53.28,35.68c-.2-1.04-.47-2.23-1.34-3.1-1.73-1.72-3.53-3.37-5.31-5.05-.47-.45-.72-.46-1.22.18-2.08,2.73-4.29,5.36-6.45,8.02-.49.61-.57,1.08.11,1.69,2.72,2.45,5.38,4.96,8.05,7.46.66.62,1,.42,1.43-.3,1.11-1.85,2.36-3.62,3.46-5.48.59-1.01,1.16-2.07,1.27-3.44ZM81.48,13.01c-3.14-.27-6.08,2.75-6.03,6.04.04,2.85,2.07,6.14,6.3,6.1,2.82-.03,5.94-2.43,6.01-6.02.07-3.49-3.09-6.32-6.28-6.12ZM15.12,92.31c1.87.1,3.32-.84,4.68-1.91.69-.54.76-1.06-.31-1.39-1.44-.44-2.85-1.01-4.25-1.56-.7-.27-1.35-.75-1.19-1.57.19-.99,1.11-.68,1.79-.7.18,0,.36.1.54.17,1.28.49,2.55,1,3.83,1.48.69.26,1.15.28,1.17-.76.07-3.11-1.51-5.02-4.83-5.96-2.51-.71-4.53.1-6.04,1.96-1.5,1.85-2.07,4.02-.96,6.4,1.12,2.42,2.95,3.69,5.57,3.83ZM89.34,101.16c1.22,0,2.39-.02,3.56,0,.52.01.76-.07.8-.7.24-3.77,1.42-7.27,3.26-10.55,1.33-2.37,1.29-2.33-.65-4.37-.81-.85-1.19-.65-1.75.2-1.8,2.73-3.2,5.63-4.12,8.77-.62,2.12-.86,4.3-1.1,6.64ZM98.17,101.16c.86-.13,2.25.54,2.33-1.31.08-1.74.68-3.35,1.34-4.93.32-.77,1.18-1.61,1.02-2.22-.2-.79-1.24-1.33-1.8-2.06-.9-1.17-1.44-.69-1.99.29-1.58,2.81-2.54,5.83-3.03,9-.13.86.05,1.44,1.12,1.24.28-.05.59,0,1.01,0ZM106.28,2.36c-1.55-.01-2.59.91-2.56,2.27.02,1.22,1.17,2.44,2.31,2.46,1.37.02,2.7-1.19,2.72-2.48.02-1.28-1.03-2.24-2.47-2.25Z"></path><g><path class="cls-1" d="M216.78,73.19l1.37-3.15c4.68.11,8.54.82,11.58,2.14,3.04,1.32,5.31,3.15,6.82,5.49s2.26,5.05,2.26,8.11c0,3.28-.75,6.2-2.26,8.76-1.51,2.56-3.75,4.57-6.74,6.05-2.99,1.48-6.71,2.22-11.18,2.22h-44.72l4.68-31.08-4.68-29.46h43.11c5.6,0,9.96,1.31,13.08,3.92,3.12,2.61,4.68,6.23,4.68,10.86,0,2.53-.59,4.95-1.78,7.27-1.18,2.31-3.08,4.27-5.69,5.85-2.61,1.59-6.12,2.6-10.53,3.03ZM190.46,98.94l-6.46-7.83h30.11c2.42,0,4.31-.59,5.65-1.78,1.34-1.18,2.02-2.82,2.02-4.92s-.73-3.78-2.18-5.05c-1.45-1.26-3.61-1.9-6.46-1.9h-24.86v-11.46h22.6c1.94,0,3.56-.58,4.88-1.74,1.32-1.16,1.98-2.73,1.98-4.72,0-1.61-.57-2.95-1.7-4-1.13-1.05-2.74-1.57-4.84-1.57h-27.12l6.38-7.83,4.12,25.59-4.12,27.2Z"></path><path class="cls-1" d="M247.05,42.28h16.71v60.54h-16.71v-60.54Z"></path><path class="cls-1" d="M308.32,104.11c-7.16,0-13.44-1.32-18.85-3.96-5.41-2.64-9.61-6.32-12.59-11.06-2.99-4.73-4.48-10.25-4.48-16.55s1.49-11.81,4.48-16.55c2.99-4.74,7.18-8.42,12.59-11.06,5.41-2.64,11.69-3.96,18.85-3.96s13.51,1.32,18.89,3.96c5.38,2.64,9.58,6.32,12.59,11.06,3.01,4.74,4.52,10.25,4.52,16.55s-1.51,11.81-4.52,16.55c-3.01,4.74-7.21,8.42-12.59,11.06-5.38,2.64-11.68,3.96-18.89,3.96ZM308.32,89.18c3.93,0,7.32-.67,10.17-2.02,2.85-1.34,5.05-3.26,6.58-5.73,1.53-2.47,2.3-5.43,2.3-8.88s-.77-6.4-2.3-8.88c-1.53-2.47-3.73-4.39-6.58-5.73-2.85-1.34-6.24-2.02-10.17-2.02s-7.24.67-10.09,2.02c-2.85,1.35-5.06,3.26-6.62,5.73-1.56,2.48-2.34,5.44-2.34,8.88s.78,6.4,2.34,8.88c1.56,2.48,3.77,4.39,6.62,5.73,2.85,1.35,6.22,2.02,10.09,2.02Z"></path><path class="cls-1" d="M441.43,42.28v60.54h-15.9v-54.57l3.55.4-23.41,54.16h-16.95l-23.49-54,3.63-.4v54.41h-15.9v-60.54h25.83l21.71,51.99h-6.46l21.55-51.99h25.83Z"></path><path class="cls-1" d="M471.54,72.55l-3.96,24.3-6.78-7.59h46.33v13.56h-56.26l4.6-30.27-4.6-30.27h55.86v13.56h-45.93l6.78-7.59,3.96,24.3ZM504.47,66.49v12.11h-44.32v-12.11h44.32Z"></path><path class="cls-1" d="M583.1,77.47c-.59,5.33-2.42,10-5.49,14.01-3.07,4.01-7.09,7.12-12.07,9.32-4.98,2.21-10.7,3.31-17.15,3.31-7.05,0-13.21-1.32-18.48-3.96-5.28-2.64-9.38-6.32-12.31-11.06-2.93-4.73-4.4-10.25-4.4-16.55s1.47-11.81,4.4-16.55c2.93-4.74,7.04-8.42,12.31-11.06,5.27-2.64,11.43-3.96,18.48-3.96,6.46,0,12.18,1.1,17.15,3.31,4.98,2.21,9,5.32,12.07,9.32,3.07,4.01,4.9,8.68,5.49,14.01h-16.79c-.54-2.58-1.59-4.78-3.15-6.58-1.56-1.8-3.59-3.19-6.1-4.16-2.5-.97-5.4-1.45-8.68-1.45-3.77,0-7.02.69-9.77,2.06-2.74,1.37-4.84,3.34-6.3,5.89-1.45,2.56-2.18,5.61-2.18,9.16s.73,6.61,2.18,9.16c1.45,2.56,3.55,4.52,6.3,5.89,2.74,1.37,6,2.06,9.77,2.06,3.28,0,6.18-.46,8.68-1.37,2.5-.91,4.53-2.29,6.1-4.12,1.56-1.83,2.61-4.06,3.15-6.7h16.79Z"></path><path class="cls-1" d="M632.09,42.28l27.53,60.54h-17.84l-23.09-53.44h4.84l-23.17,53.44h-17.84l27.53-60.54h22.04ZM599.89,91.19v-13.48h41.73v13.48h-41.73ZM612.4,24.2h17.36l12.27,13.56h-13.48l-11.3-8.39h7.67l-11.3,8.39h-13.48l12.27-13.56Z"></path><path class="cls-1" d="M721.45,91.11l-5.17,1.05v-49.89h16.23v60.54h-21.07l-34.95-49.81,5.09-1.05v50.86h-16.22v-60.54h21.63l34.47,48.84Z"></path><path class="cls-1" d="M743.81,42.28h16.71v60.54h-16.71v-60.54Z"></path><path class="cls-1" d="M839.06,77.47c-.59,5.33-2.42,10-5.49,14.01-3.07,4.01-7.09,7.12-12.07,9.32-4.98,2.21-10.7,3.31-17.15,3.31-7.05,0-13.21-1.32-18.48-3.96-5.28-2.64-9.38-6.32-12.31-11.06-2.93-4.73-4.4-10.25-4.4-16.55s1.47-11.81,4.4-16.55c2.93-4.74,7.04-8.42,12.31-11.06,5.27-2.64,11.43-3.96,18.48-3.96,6.46,0,12.18,1.1,17.15,3.31,4.98,2.21,9,5.32,12.07,9.32,3.07,4.01,4.9,8.68,5.49,14.01h-16.79c-.54-2.58-1.59-4.78-3.15-6.58-1.56-1.8-3.59-3.19-6.1-4.16-2.5-.97-5.4-1.45-8.68-1.45-3.77,0-7.02.69-9.77,2.06-2.74,1.37-4.84,3.34-6.3,5.89-1.45,2.56-2.18,5.61-2.18,9.16s.73,6.61,2.18,9.16c1.45,2.56,3.55,4.52,6.3,5.89,2.74,1.37,6,2.06,9.77,2.06,3.28,0,6.18-.46,8.68-1.37,2.5-.91,4.53-2.29,6.1-4.12,1.56-1.83,2.61-4.06,3.15-6.7h16.79Z"></path><path class="cls-1" d="M888.06,42.28l27.53,60.54h-17.84l-23.09-53.44h4.84l-23.17,53.44h-17.84l27.53-60.54h22.04ZM855.85,91.19v-13.48h41.73v13.48h-41.73Z"></path></g><g><path class="cls-1" d="M175.74,21.93v-4h11.43c1.19,0,2.17-.1,2.95-.29.78-.19,1.4-.48,1.86-.86.46-.38.78-.86.96-1.46.18-.59.27-1.28.27-2.06s-.09-1.46-.27-2.04c-.18-.58-.5-1.06-.96-1.44-.46-.38-1.08-.66-1.86-.86-.78-.19-1.76-.29-2.95-.29h-11.43v-4h11.43c1.92,0,3.54.18,4.88.55,1.33.36,2.43.91,3.28,1.64.85.73,1.47,1.63,1.86,2.69.39,1.07.58,2.32.58,3.75s-.19,2.69-.58,3.77-1,1.98-1.84,2.71c-.84.73-1.92,1.27-3.26,1.64-1.34.36-2.97.55-4.92.55h-11.43ZM175.74,4.63h4.37v25.48h-4.37V4.63Z"></path><path class="cls-1" d="M202.44,13.81c1.66-1.62,4.22-2.44,7.66-2.44s6.04.81,7.72,2.44c1.67,1.63,2.51,4.03,2.51,7.21s-.84,5.58-2.51,7.21c-1.67,1.63-4.25,2.44-7.72,2.44s-6-.81-7.66-2.44c-1.66-1.63-2.49-4.03-2.49-7.21s.83-5.58,2.49-7.21ZM205.73,25.31c.95.97,2.4,1.46,4.37,1.46s3.46-.48,4.42-1.46c.96-.97,1.44-2.4,1.44-4.3s-.48-3.32-1.44-4.29c-.96-.97-2.43-1.46-4.42-1.46s-3.51.49-4.42,1.46-1.37,2.4-1.37,4.29.47,3.33,1.42,4.3ZM211.41.41l2.18,1.6-5.42,6.7-1.49-1.06,4.73-7.24Z"></path><path class="cls-1" d="M223.12,14.35c.35-.68.89-1.24,1.6-1.69.72-.45,1.6-.78,2.66-.98s2.29-.31,3.69-.31c3.15,0,5.47.53,6.95,1.58,1.48,1.06,2.22,2.77,2.22,5.15h-3.82c0-.63-.13-1.15-.38-1.55s-.64-.72-1.15-.96c-.51-.24-1.15-.42-1.91-.53-.76-.11-1.64-.16-2.64-.16-.87,0-1.58.05-2.11.16-.53.11-.95.25-1.26.44-.3.18-.51.38-.62.6-.11.22-.16.44-.16.66,0,.27.1.51.31.73.21.22.53.43.98.64.45.21,1.02.4,1.73.58.7.18,1.57.37,2.58.56,1.31.22,2.49.44,3.55.66s1.97.53,2.73.93c.76.4,1.35.93,1.77,1.6.41.67.62,1.55.62,2.64,0,2.01-.72,3.45-2.15,4.29-1.43.85-3.53,1.27-6.3,1.27-3.3,0-5.71-.53-7.23-1.58s-2.27-2.77-2.27-5.15h3.82c0,.61.15,1.12.44,1.53.29.41.71.74,1.26.98.55.24,1.21.42,1.98.53.78.11,1.63.16,2.55.16.78,0,1.44-.05,1.98-.15.55-.1.99-.23,1.33-.4.34-.17.58-.37.73-.6s.22-.48.22-.75c0-.41-.12-.75-.36-1-.24-.25-.61-.46-1.11-.6-.5-.15-1.12-.27-1.86-.38s-1.58-.25-2.53-.42c-1-.15-1.99-.34-2.99-.58-1-.24-1.9-.58-2.71-1.02-.81-.44-1.46-1.01-1.95-1.71-.49-.7-.73-1.6-.73-2.69,0-.97.18-1.79.53-2.47Z"></path><path class="cls-1" d="M242.65,20.14h9.46v2.73h-9.46v-2.73Z"></path><path class="cls-1" d="M263.76,24.11c-1.07,0-1.97.01-2.71.04-.74.02-1.34.07-1.8.13s-.8.16-1.02.31c-.22.15-.33.34-.33.58s.1.44.31.58.56.28,1.06.4c.5.12,1.15.22,1.95.31.8.08,1.78.2,2.95.35,1.33.12,2.57.25,3.71.4,1.14.15,2.13.39,2.97.73.84.34,1.49.84,1.97,1.51.47.67.71,1.61.71,2.82,0,1.92-.76,3.31-2.27,4.19-1.52.87-3.79,1.31-6.83,1.31-1.8,0-3.33-.13-4.6-.38-1.27-.25-2.32-.66-3.15-1.2-.83-.55-1.43-1.24-1.8-2.09-.38-.85-.56-1.87-.56-3.06h3.82c0,1.21.55,2.05,1.64,2.51s2.67.69,4.73.69c.85,0,1.61-.03,2.29-.09.68-.06,1.26-.17,1.73-.33.47-.16.84-.36,1.09-.62.25-.25.38-.58.38-.96,0-.46-.13-.79-.4-1s-.67-.35-1.22-.44c-.55-.09-1.21-.15-2-.18-.79-.04-1.72-.12-2.78-.24-1.04-.12-2.12-.24-3.22-.36-1.1-.12-2.1-.34-2.98-.66-.89-.32-1.61-.76-2.17-1.35-.56-.58-.84-1.38-.84-2.4s.27-1.77.8-2.31c.53-.55,1.24-.95,2.13-1.2.89-.25,1.89-.41,3.02-.46,1.13-.05,2.28-.07,3.44-.07v2.55ZM256.88,12.95c1.48-1.06,3.73-1.58,6.73-1.58s5.26.53,6.75,1.58,2.24,2.65,2.24,4.79-.72,3.73-2.15,4.79c-1.43,1.06-3.65,1.58-6.66,1.58s-5.29-.53-6.83-1.58c-1.54-1.06-2.31-2.65-2.31-4.79s.74-3.73,2.22-4.79ZM260.3,19.91c.85.45,2,.67,3.46.67,1.53,0,2.66-.22,3.39-.67.73-.45,1.09-1.18,1.09-2.2s-.4-1.71-1.18-2.15c-.79-.44-1.95-.66-3.48-.66-.87,0-1.6.05-2.17.16-.57.11-1.03.28-1.38.51-.35.23-.61.52-.76.87-.16.35-.24.77-.24,1.26,0,1.02.42,1.75,1.27,2.2ZM273.23,10.75c-.58-.34-1.24-.59-1.97-.76-.73-.17-1.42-.25-2.08-.25-.32,0-.66.04-1.02.13-.36.08-.71.22-1.04.42-.33.2-.6.46-.8.8-.21.34-.31.76-.31,1.27h-1.64c0-.78.11-1.51.33-2.2.22-.69.53-1.3.95-1.82.41-.52.93-.93,1.57-1.24.63-.3,1.35-.46,2.15-.46.73,0,1.43.09,2.09.27.67.18,1.26.37,1.77.56v3.28Z"></path><path class="cls-1" d="M275.74,30.12V11.92h4.19v18.2h-4.19ZM288.37,19.27c0-.61-.07-1.15-.22-1.64-.15-.49-.38-.9-.69-1.26-.32-.35-.72-.62-1.22-.82-.5-.19-1.07-.29-1.73-.29-1.46,0-2.58.48-3.39,1.44-.8.96-1.2,2.38-1.2,4.28v.44h-1.49v-.4c0-1.43.15-2.74.44-3.93.29-1.19.72-2.21,1.29-3.06s1.29-1.5,2.17-1.97c.87-.46,1.91-.69,3.09-.69,1.09,0,2.06.16,2.89.49.84.33,1.54.82,2.11,1.47s1,1.47,1.29,2.46c.29.98.44,2.14.44,3.48h-3.79Z"></path><path class="cls-1" d="M308.61,23.75c0,.92-.06,1.8-.18,2.64-.12.84-.41,1.57-.87,2.2-.46.63-1.16,1.13-2.09,1.51-.93.38-2.21.56-3.84.56-1.17,0-2.24-.08-3.22-.25s-1.83-.47-2.53-.91c-.7-.44-1.26-1.02-1.66-1.75-.4-.73-.6-1.65-.6-2.77,0-.92.18-1.71.53-2.37.35-.66.87-1.21,1.55-1.67.68-.46,1.52-.83,2.51-1.09,1-.27,2.14-.47,3.42-.62l7.64-.76.36,2.99-7.39.73c-.61.07-1.17.17-1.67.29-.51.12-.96.29-1.35.49-.39.21-.69.47-.91.78-.22.32-.33.7-.33,1.17,0,.34.07.64.22.91.15.27.38.5.71.69.33.2.76.35,1.29.46.53.11,1.19.16,1.97.16,1.12,0,2.05-.11,2.8-.35.75-.23,1.36-.51,1.82-.84.46-.33.79-.69,1-1.09.21-.4.31-.77.31-1.11h.51ZM307.59,16.56c-.32-.47-.72-.83-1.2-1.07-.49-.24-1.02-.4-1.6-.47-.58-.07-1.13-.11-1.64-.11s-1.04.03-1.6.09c-.56.06-1.07.2-1.53.42-.46.22-.84.55-1.15.98-.3.44-.46,1.04-.46,1.82h-3.82c0-1.24.2-2.29.6-3.15.4-.86.97-1.56,1.71-2.11.74-.55,1.64-.95,2.71-1.2,1.07-.25,2.26-.38,3.57-.38,1.53,0,2.86.13,3.99.4,1.13.27,2.07.7,2.82,1.29.75.59,1.32,1.39,1.69,2.38.38,1,.56,2.22.56,3.68v10.99h-4.19v-11.61c0-.82-.16-1.47-.47-1.95Z"></path><path class="cls-1" d="M317.11,13.81c1.54-1.62,3.67-2.44,6.39-2.44,1.53,0,2.77.23,3.73.69.96.46,1.72,1.11,2.27,1.95.56.84.94,1.85,1.15,3.04.21,1.19.31,2.51.31,3.97,0,1.31-.1,2.55-.29,3.71-.19,1.17-.56,2.18-1.09,3.06-.53.87-1.27,1.57-2.22,2.09-.95.52-2.18.78-3.71.78-1.26,0-2.43-.21-3.51-.62-1.08-.41-2.01-1.02-2.8-1.84-.79-.81-1.41-1.82-1.86-3.02-.45-1.2-.67-2.59-.67-4.17,0-3.18.77-5.58,2.31-7.21ZM320.5,25.31c.89.97,2.2,1.46,3.95,1.46s3.14-.48,4.04-1.46c.9-.97,1.35-2.41,1.35-4.33s-.45-3.32-1.35-4.28c-.9-.96-2.25-1.44-4.04-1.44-1,0-1.83.12-2.51.36-.68.24-1.23.61-1.64,1.09-.41.49-.7,1.08-.87,1.78-.17.7-.25,1.53-.25,2.48,0,1.92.44,3.36,1.33,4.33ZM329.83,2.81h4.15v27.3h-4.15V2.81Z"></path><path class="cls-1" d="M341.45,11.92v9.79c0,.78.07,1.47.2,2.09.13.62.38,1.15.75,1.58.36.44.86.78,1.47,1.02.62.24,1.41.36,2.38.36,1.75,0,3.07-.48,3.97-1.44s1.35-2.38,1.35-4.28v-.44h1.46v.4c0,1.43-.13,2.74-.4,3.93-.27,1.19-.71,2.21-1.33,3.06-.62.85-1.43,1.5-2.44,1.97-1.01.46-2.25.69-3.73.69-1.31,0-2.46-.16-3.44-.47-.98-.32-1.81-.82-2.48-1.51-.67-.69-1.16-1.58-1.47-2.68-.32-1.09-.47-2.4-.47-3.93v-10.16h4.19ZM355.72,11.92v18.2h-4.15V11.92h4.15Z"></path><path class="cls-1" d="M373.26,23.75c0,.92-.06,1.8-.18,2.64-.12.84-.41,1.57-.87,2.2-.46.63-1.16,1.13-2.09,1.51-.93.38-2.21.56-3.84.56-1.17,0-2.24-.08-3.22-.25s-1.83-.47-2.53-.91c-.7-.44-1.26-1.02-1.66-1.75-.4-.73-.6-1.65-.6-2.77,0-.92.18-1.71.53-2.37.35-.66.87-1.21,1.55-1.67.68-.46,1.52-.83,2.51-1.09,1-.27,2.14-.47,3.42-.62l7.64-.76.36,2.99-7.39.73c-.61.07-1.17.17-1.67.29-.51.12-.96.29-1.35.49-.39.21-.69.47-.91.78-.22.32-.33.7-.33,1.17,0,.34.07.64.22.91.15.27.38.5.71.69.33.2.76.35,1.29.46.53.11,1.19.16,1.97.16,1.12,0,2.05-.11,2.8-.35.75-.23,1.36-.51,1.82-.84.46-.33.79-.69,1-1.09.21-.4.31-.77.31-1.11h.51ZM372.25,16.56c-.32-.47-.72-.83-1.2-1.07-.49-.24-1.02-.4-1.6-.47-.58-.07-1.13-.11-1.64-.11s-1.04.03-1.6.09c-.56.06-1.07.2-1.53.42-.46.22-.84.55-1.15.98-.3.44-.46,1.04-.46,1.82h-3.82c0-1.24.2-2.29.6-3.15.4-.86.97-1.56,1.71-2.11.74-.55,1.64-.95,2.71-1.2,1.07-.25,2.26-.38,3.57-.38,1.53,0,2.86.13,3.99.4,1.13.27,2.07.7,2.82,1.29.75.59,1.32,1.39,1.69,2.38.38,1,.56,2.22.56,3.68v10.99h-4.19v-11.61c0-.82-.16-1.47-.47-1.95Z"></path><path class="cls-1" d="M393.16,11.97c1.1.4,2.03.96,2.77,1.67s1.3,1.55,1.69,2.49.58,1.97.58,3.06h-3.82c0-.58-.1-1.11-.31-1.58-.21-.47-.53-.89-.96-1.24-.44-.35-.97-.62-1.6-.82-.63-.19-1.37-.29-2.22-.29-.8,0-1.54.1-2.22.29-.68.19-1.26.52-1.73.98-.47.46-.84,1.05-1.11,1.77-.27.72-.4,1.6-.4,2.64s.15,2.01.44,2.77c.29.75.69,1.35,1.2,1.8.51.45,1.12.77,1.82.96.7.19,1.46.29,2.26.29.87,0,1.62-.1,2.24-.29.62-.19,1.13-.47,1.53-.82.4-.35.7-.76.91-1.24.21-.47.31-1,.31-1.58h3.79c0,1.09-.18,2.11-.53,3.06-.35.95-.89,1.78-1.62,2.49-.73.72-1.66,1.27-2.79,1.67-1.13.4-2.46.6-3.99.6-3.25,0-5.72-.81-7.41-2.44-1.69-1.63-2.53-4.03-2.53-7.21s.78-5.61,2.35-7.23c1.56-1.61,4.07-2.42,7.52-2.42,1.46,0,2.74.2,3.84.6ZM390.12,30.12l-.98,2.15c.44,0,.87.04,1.29.13.42.08.81.24,1.17.47.35.23.63.55.84.95.21.4.31.9.31,1.51,0,1.24-.33,2.13-1,2.68s-1.56.82-2.68.82c-.17,0-.46-.02-.86-.07-.4-.05-.81-.17-1.24-.36-.43-.19-.8-.5-1.13-.91-.33-.41-.49-.97-.49-1.67h2.15c0,.29.16.5.47.64.31.13.64.2.98.2.46,0,.82-.11,1.07-.33.25-.22.38-.53.38-.95,0-.53-.22-.9-.66-1.09-.44-.19-1.02-.29-1.75-.29h-1.46l1.46-3.86h2.11Z"></path><path class="cls-1" d="M414.76,23.75c0,.92-.06,1.8-.18,2.64-.12.84-.41,1.57-.87,2.2-.46.63-1.16,1.13-2.09,1.51-.93.38-2.21.56-3.84.56-1.17,0-2.24-.08-3.22-.25s-1.83-.47-2.53-.91c-.7-.44-1.26-1.02-1.66-1.75-.4-.73-.6-1.65-.6-2.77,0-.92.18-1.71.53-2.37.35-.66.87-1.21,1.55-1.67.68-.46,1.52-.83,2.51-1.09,1-.27,2.14-.47,3.42-.62l7.64-.76.36,2.99-7.39.73c-.61.07-1.17.17-1.67.29-.51.12-.96.29-1.35.49-.39.21-.69.47-.91.78-.22.32-.33.7-.33,1.17,0,.34.07.64.22.91.15.27.38.5.71.69.33.2.76.35,1.29.46.53.11,1.19.16,1.97.16,1.12,0,2.05-.11,2.8-.35.75-.23,1.36-.51,1.82-.84.46-.33.79-.69,1-1.09.21-.4.31-.77.31-1.11h.51ZM413.75,16.56c-.32-.47-.72-.83-1.2-1.07-.49-.24-1.02-.4-1.6-.47-.58-.07-1.13-.11-1.64-.11s-1.04.03-1.6.09c-.56.06-1.07.2-1.53.42-.46.22-.84.55-1.15.98-.3.44-.46,1.04-.46,1.82h-3.82c0-1.24.2-2.29.6-3.15.4-.86.97-1.56,1.71-2.11.74-.55,1.64-.95,2.71-1.2,1.07-.25,2.26-.38,3.57-.38,1.53,0,2.86.13,3.99.4,1.13.27,2.07.7,2.82,1.29.75.59,1.32,1.39,1.69,2.38.38,1,.56,2.22.56,3.68v10.99h-4.19v-11.61c0-.82-.16-1.47-.47-1.95ZM402.22,6.58c.13-.67.35-1.26.66-1.77.3-.51.71-.92,1.22-1.22.51-.3,1.15-.46,1.93-.46.73,0,1.37.16,1.93.49.56.33,1.07.69,1.55,1.07.47.39.92.75,1.35,1.07.42.33.87.49,1.33.49.56,0,.91-.27,1.06-.8s.22-1.19.22-1.97h2.73c0,.73-.05,1.43-.16,2.09-.11.67-.29,1.25-.55,1.75-.25.5-.61.9-1.07,1.2-.46.3-1.04.46-1.75.46-.85,0-1.55-.16-2.11-.49-.56-.33-1.06-.68-1.51-1.07-.45-.39-.88-.75-1.29-1.07-.41-.33-.9-.49-1.46-.49-.22,0-.43.05-.62.15-.19.1-.36.25-.49.47-.13.22-.24.5-.31.86s-.11.78-.11,1.29h-2.73c0-.7.07-1.39.2-2.06Z"></path><path class="cls-1" d="M423.45,13.81c1.66-1.62,4.22-2.44,7.66-2.44s6.04.81,7.72,2.44c1.67,1.63,2.51,4.03,2.51,7.21s-.84,5.58-2.51,7.21c-1.67,1.63-4.25,2.44-7.72,2.44s-6-.81-7.66-2.44c-1.66-1.63-2.49-4.03-2.49-7.21s.83-5.58,2.49-7.21ZM426.74,25.31c.95.97,2.4,1.46,4.37,1.46s3.46-.48,4.42-1.46c.96-.97,1.44-2.4,1.44-4.3s-.48-3.32-1.44-4.29c-.96-.97-2.43-1.46-4.42-1.46s-3.51.49-4.42,1.46-1.37,2.4-1.37,4.29.47,3.33,1.42,4.3Z"></path><path class="cls-1" d="M472.1,22.25h-4.08v-1.93c0-.97-.13-1.8-.38-2.49-.25-.69-.61-1.25-1.07-1.67s-1.02-.74-1.67-.95-1.38-.31-2.18-.31-1.49.13-2.13.38c-.64.25-1.21.64-1.69,1.15-.49.51-.86,1.15-1.13,1.91-.27.76-.4,1.66-.4,2.67,0,1.14.13,2.1.38,2.88.25.78.63,1.41,1.13,1.89.5.49,1.11.83,1.84,1.04.73.21,1.55.31,2.48.31.73,0,1.39-.08,1.98-.25.59-.17,1.1-.4,1.53-.69.42-.29.76-.63,1-1.02.24-.39.36-.81.36-1.27l3.82.04c0,2.01-.75,3.64-2.24,4.88s-3.66,1.86-6.5,1.86c-3.42,0-5.97-.82-7.64-2.46-1.67-1.64-2.51-4.05-2.51-7.23s.81-5.48,2.44-7.13,3.98-2.48,7.06-2.48c3.45,0,5.91.86,7.39,2.57s2.22,4.24,2.22,7.59v.73ZM454.92,19.2h15.51v3.06h-15.51v-3.06Z"></path><path class="cls-1" d="M475.01,30.12V11.92h4.19v18.2h-4.19ZM487.68,30.12v-10.52c0-.58-.06-1.13-.18-1.66-.12-.52-.33-.98-.64-1.38-.3-.4-.72-.72-1.24-.95-.52-.23-1.18-.35-1.98-.35-1.48,0-2.59.48-3.33,1.44-.74.96-1.11,2.38-1.11,4.28v.44h-1.42v-.4c0-1.43.13-2.74.38-3.93.25-1.19.68-2.21,1.27-3.06s1.36-1.5,2.29-1.97c.93-.46,2.06-.69,3.37-.69,1.12,0,2.1.17,2.95.51s1.55.84,2.11,1.49c.56.66.98,1.48,1.26,2.48.28,1,.42,2.16.42,3.5v10.78h-4.15ZM500.31,30.12v-9.79c0-.78-.06-1.47-.18-2.09-.12-.62-.33-1.15-.62-1.58s-.7-.78-1.22-1.02c-.52-.24-1.18-.36-1.98-.36-.75,0-1.41.12-1.97.35-.56.23-1.02.55-1.38.95s-.64.86-.84,1.38c-.2.52-.29,1.09-.29,1.69v1.78h-2.22v-2.08c0-.97.12-1.93.35-2.88.23-.95.63-1.8,1.2-2.57.57-.76,1.32-1.38,2.24-1.84.92-.46,2.06-.69,3.42-.69s2.49.16,3.46.47c.97.32,1.77.82,2.38,1.51.62.69,1.08,1.58,1.38,2.68.3,1.09.46,2.4.46,3.93v10.16h-4.19Z"></path></g><g><path class="cls-1" d="M175.54,115.27h3.91v22.78h-3.91v-22.78ZM179.45,115.27l10.51,19.72v3.06h-2.54l-10.8-20.24,2.83-2.54ZM189.96,138.05h-2.54v-3.06l10.51-19.72,2.8,2.54-10.77,20.24ZM197.93,138.05v-22.78h3.91v22.78h-3.91Z"></path><path class="cls-1" d="M208.51,121.78v8.75c0,.7.06,1.32.18,1.87.12.55.34,1.03.67,1.42s.76.69,1.32.91,1.26.33,2.13.33c1.56,0,2.74-.43,3.55-1.29.8-.86,1.2-2.13,1.2-3.82v-.39h1.3v.36c0,1.28-.12,2.45-.36,3.51-.24,1.06-.63,1.97-1.19,2.73-.55.76-1.28,1.35-2.18,1.76-.9.41-2.01.62-3.34.62-1.17,0-2.2-.14-3.08-.42-.88-.28-1.62-.73-2.21-1.35s-1.04-1.42-1.32-2.39c-.28-.98-.42-2.15-.42-3.51v-9.08h3.74ZM221.26,121.78v16.27h-3.71v-16.27h3.71Z"></path><path class="cls-1" d="M224.4,123.96c.31-.61.79-1.11,1.43-1.51.64-.4,1.43-.69,2.38-.88.94-.18,2.04-.28,3.3-.28,2.82,0,4.89.47,6.22,1.42,1.32.94,1.98,2.48,1.98,4.6h-3.42c0-.56-.11-1.02-.34-1.38-.23-.36-.57-.65-1.03-.86s-1.02-.37-1.71-.47c-.68-.1-1.47-.15-2.36-.15-.78,0-1.41.05-1.89.15-.48.1-.85.23-1.12.39-.27.16-.46.34-.55.54-.1.19-.15.39-.15.58,0,.24.09.46.28.65.18.2.48.39.88.57.4.18.92.36,1.55.52.63.16,1.4.33,2.31.5,1.17.2,2.23.39,3.17.58.94.2,1.76.47,2.44.83.68.36,1.21.84,1.58,1.43.37.6.55,1.38.55,2.36,0,1.8-.64,3.08-1.92,3.84-1.28.76-3.16,1.14-5.63,1.14-2.95,0-5.1-.47-6.46-1.42-1.36-.94-2.03-2.48-2.03-4.6h3.42c0,.54.13,1,.39,1.37s.63.66,1.12.88c.49.22,1.08.38,1.77.47.69.1,1.45.15,2.28.15.69,0,1.29-.04,1.77-.13.49-.09.88-.21,1.19-.36.3-.15.52-.33.65-.54.13-.21.19-.43.19-.67,0-.37-.11-.67-.33-.9-.22-.23-.55-.41-.99-.54-.44-.13-1-.24-1.66-.34-.66-.1-1.42-.22-2.26-.38-.89-.13-1.78-.3-2.67-.52-.89-.22-1.7-.52-2.42-.91-.73-.39-1.31-.9-1.74-1.53-.43-.63-.65-1.43-.65-2.41,0-.87.16-1.61.47-2.21Z"></path><path class="cls-1" d="M254.12,121.82c.99.36,1.81.86,2.47,1.5.66.64,1.17,1.38,1.51,2.23.35.85.52,1.76.52,2.73h-3.42c0-.52-.09-.99-.28-1.42-.18-.42-.47-.79-.86-1.11-.39-.31-.87-.56-1.43-.73-.56-.17-1.23-.26-1.98-.26-.72,0-1.38.09-1.98.26-.61.17-1.12.47-1.55.88-.42.41-.75.94-.99,1.58-.24.64-.36,1.43-.36,2.36s.13,1.8.39,2.47c.26.67.62,1.21,1.07,1.61s1,.69,1.63.86,1.3.26,2.02.26c.78,0,1.45-.09,2-.26s1.01-.42,1.37-.73.63-.68.81-1.11c.18-.42.28-.89.28-1.42h3.38c0,.98-.16,1.89-.47,2.73-.31.85-.8,1.59-1.45,2.23-.65.64-1.48,1.14-2.49,1.5s-2.2.54-3.56.54c-2.91,0-5.11-.73-6.62-2.18-1.51-1.45-2.26-3.6-2.26-6.44s.7-5.02,2.1-6.46c1.4-1.44,3.64-2.16,6.72-2.16,1.3,0,2.45.18,3.43.54Z"></path><path class="cls-1" d="M264.41,121.78v8.75c0,.7.06,1.32.18,1.87.12.55.34,1.03.67,1.42s.76.69,1.32.91,1.26.33,2.13.33c1.56,0,2.74-.43,3.55-1.29.8-.86,1.2-2.13,1.2-3.82v-.39h1.3v.36c0,1.28-.12,2.45-.36,3.51-.24,1.06-.63,1.97-1.19,2.73-.55.76-1.28,1.35-2.18,1.76-.9.41-2.01.62-3.34.62-1.17,0-2.2-.14-3.08-.42-.88-.28-1.62-.73-2.21-1.35s-1.04-1.42-1.32-2.39c-.28-.98-.42-2.15-.42-3.51v-9.08h3.74ZM277.17,121.78v16.27h-3.71v-16.27h3.71Z"></path><path class="cls-1" d="M280.42,138.05v-24.41h3.74v24.41h-3.74Z"></path><path class="cls-1" d="M299.85,132.35c0,.83-.05,1.61-.16,2.36-.11.75-.37,1.41-.78,1.97-.41.56-1.04,1.01-1.87,1.35-.84.34-1.98.5-3.43.5-1.04,0-2-.08-2.88-.23-.88-.15-1.63-.42-2.26-.81-.63-.39-1.12-.91-1.48-1.56-.36-.65-.54-1.47-.54-2.47,0-.82.16-1.53.47-2.12.31-.58.78-1.08,1.38-1.5.61-.41,1.36-.74,2.25-.98.89-.24,1.91-.42,3.06-.55l6.83-.68.33,2.67-6.61.65c-.54.06-1.04.15-1.5.26-.46.11-.86.26-1.2.44-.35.18-.62.42-.81.7-.2.28-.29.63-.29,1.04,0,.3.06.58.19.81.13.24.34.44.63.62s.68.31,1.16.41c.48.1,1.06.15,1.76.15,1,0,1.83-.1,2.51-.31.67-.21,1.21-.46,1.63-.75.41-.29.71-.62.9-.98.18-.36.28-.69.28-.99h.46ZM298.94,125.92c-.28-.42-.64-.74-1.07-.96-.43-.22-.91-.36-1.43-.42-.52-.07-1.01-.1-1.46-.1s-.93.03-1.43.08c-.5.05-.96.18-1.37.37-.41.2-.75.49-1.03.88-.27.39-.41.93-.41,1.63h-3.42c0-1.11.18-2.04.54-2.81.36-.77.87-1.4,1.53-1.89s1.47-.85,2.42-1.07c.95-.23,2.02-.34,3.19-.34,1.37,0,2.55.12,3.56.36,1.01.24,1.85.62,2.52,1.16.67.53,1.18,1.24,1.51,2.13.34.89.5,1.98.5,3.29v9.83h-3.74v-10.38c0-.74-.14-1.32-.42-1.74Z"></path><path class="cls-1" d="M317.64,121.82c.99.36,1.81.86,2.47,1.5.66.64,1.17,1.38,1.51,2.23.35.85.52,1.76.52,2.73h-3.42c0-.52-.09-.99-.28-1.42-.18-.42-.47-.79-.86-1.11-.39-.31-.87-.56-1.43-.73-.56-.17-1.23-.26-1.98-.26-.72,0-1.38.09-1.98.26-.61.17-1.12.47-1.55.88-.42.41-.75.94-.99,1.58-.24.64-.36,1.43-.36,2.36s.13,1.8.39,2.47c.26.67.62,1.21,1.07,1.61s1,.69,1.63.86,1.3.26,2.02.26c.78,0,1.45-.09,2-.26s1.01-.42,1.37-.73.63-.68.81-1.11c.18-.42.28-.89.28-1.42h3.38c0,.98-.16,1.89-.47,2.73-.31.85-.8,1.59-1.45,2.23-.65.64-1.48,1.14-2.49,1.5s-2.2.54-3.56.54c-2.91,0-5.11-.73-6.62-2.18-1.51-1.45-2.26-3.6-2.26-6.44s.7-5.02,2.1-6.46c1.4-1.44,3.64-2.16,6.72-2.16,1.3,0,2.45.18,3.43.54ZM314.92,138.05l-.88,1.92c.39,0,.78.04,1.16.11.38.08.73.22,1.04.42.31.21.56.49.75.85.18.36.28.81.28,1.35,0,1.11-.3,1.9-.89,2.39-.6.49-1.39.73-2.39.73-.15,0-.41-.02-.76-.06-.36-.04-.73-.15-1.11-.33-.38-.17-.72-.44-1.01-.81s-.44-.87-.44-1.5h1.92c0,.26.14.45.42.57.28.12.57.18.88.18.41,0,.73-.1.96-.29.23-.2.34-.48.34-.85,0-.48-.2-.8-.59-.98-.39-.17-.91-.26-1.56-.26h-1.3l1.3-3.45h1.89Z"></path><path class="cls-1" d="M336.95,132.35c0,.83-.05,1.61-.16,2.36-.11.75-.37,1.41-.78,1.97-.41.56-1.04,1.01-1.87,1.35-.84.34-1.98.5-3.43.5-1.04,0-2-.08-2.88-.23-.88-.15-1.63-.42-2.26-.81-.63-.39-1.12-.91-1.48-1.56-.36-.65-.54-1.47-.54-2.47,0-.82.16-1.53.47-2.12.31-.58.78-1.08,1.38-1.5.61-.41,1.36-.74,2.25-.98.89-.24,1.91-.42,3.06-.55l6.83-.68.33,2.67-6.61.65c-.54.06-1.04.15-1.5.26-.46.11-.86.26-1.2.44-.35.18-.62.42-.81.7-.2.28-.29.63-.29,1.04,0,.3.06.58.19.81.13.24.34.44.63.62s.68.31,1.16.41c.48.1,1.06.15,1.76.15,1,0,1.83-.1,2.51-.31.67-.21,1.21-.46,1.63-.75.41-.29.71-.62.9-.98.18-.36.28-.69.28-.99h.46ZM336.04,125.92c-.28-.42-.64-.74-1.07-.96-.43-.22-.91-.36-1.43-.42-.52-.07-1.01-.1-1.46-.1s-.93.03-1.43.08c-.5.05-.96.18-1.37.37-.41.2-.75.49-1.03.88-.27.39-.41.93-.41,1.63h-3.42c0-1.11.18-2.04.54-2.81.36-.77.87-1.4,1.53-1.89s1.47-.85,2.42-1.07c.95-.23,2.02-.34,3.19-.34,1.37,0,2.55.12,3.56.36,1.01.24,1.85.62,2.52,1.16.67.53,1.18,1.24,1.51,2.13.34.89.5,1.98.5,3.29v9.83h-3.74v-10.38c0-.74-.14-1.32-.42-1.74ZM325.74,117.01c.12-.6.31-1.12.59-1.58.27-.46.63-.82,1.09-1.09.46-.27,1.03-.41,1.72-.41.65,0,1.23.15,1.72.44s.96.61,1.38.96c.42.35.82.67,1.2.96.38.29.78.44,1.19.44.5,0,.81-.24.94-.72.13-.48.2-1.06.2-1.76h2.44c0,.65-.05,1.27-.15,1.87s-.26,1.12-.49,1.56c-.23.45-.55.8-.96,1.07-.41.27-.93.41-1.56.41-.76,0-1.39-.15-1.89-.44s-.95-.61-1.35-.96-.79-.67-1.15-.96c-.37-.29-.8-.44-1.3-.44-.2,0-.38.04-.55.13-.17.09-.32.23-.44.42-.12.2-.21.45-.28.76-.06.32-.1.7-.1,1.16h-2.44c0-.63.06-1.24.18-1.84Z"></path><path class="cls-1" d="M344.71,123.47c1.49-1.45,3.77-2.18,6.85-2.18s5.4.73,6.9,2.18c1.5,1.45,2.25,3.6,2.25,6.44s-.75,4.99-2.25,6.44c-1.5,1.45-3.8,2.18-6.9,2.18s-5.36-.73-6.85-2.18c-1.49-1.45-2.23-3.6-2.23-6.44s.74-4.99,2.23-6.44ZM347.66,133.75c.85.87,2.15,1.3,3.91,1.3s3.1-.43,3.95-1.3c.86-.87,1.29-2.15,1.29-3.84s-.43-2.97-1.29-3.84c-.86-.87-2.18-1.3-3.95-1.3s-3.14.43-3.95,1.3c-.81.87-1.22,2.15-1.22,3.84s.42,2.97,1.27,3.84Z"></path><path class="cls-1" d="M371.77,115.27h3.91v22.78h-3.91v-22.78ZM373.07,115.27h16.6v3.58h-16.6v-3.58ZM373.07,124.87h15.29v3.58h-15.29v-3.58ZM373.07,134.47h16.92v3.58h-16.92v-3.58Z"></path><path class="cls-1" d="M400.89,129.59v-3.58h10.22c1.06,0,1.94-.08,2.64-.23.69-.15,1.25-.37,1.66-.67.41-.29.7-.67.86-1.12.16-.46.24-.98.24-1.56s-.08-1.13-.24-1.58-.45-.81-.86-1.11c-.41-.29-.97-.52-1.66-.67-.69-.15-1.57-.23-2.64-.23h-10.22v-3.58h10.22c1.71,0,3.17.15,4.36.46,1.19.3,2.17.75,2.93,1.35.76.6,1.31,1.34,1.66,2.23.35.89.52,1.93.52,3.12s-.17,2.2-.5,3.09-.87,1.64-1.61,2.25c-.74.61-1.68,1.06-2.83,1.37-1.15.3-2.54.46-4.17.46h-10.58ZM400.89,115.27h3.91v22.78h-3.91v-22.78ZM420.26,138.05h-4.75l-8.95-11.39h4.75l8.95,11.39Z"></path><path class="cls-1" d="M438.87,131.02h-3.65v-1.72c0-.87-.11-1.61-.34-2.23-.23-.62-.55-1.12-.96-1.5-.41-.38-.91-.66-1.5-.85-.59-.18-1.24-.28-1.95-.28s-1.33.11-1.9.34c-.58.23-1.08.57-1.51,1.02-.43.46-.77,1.03-1.01,1.71-.24.68-.36,1.48-.36,2.39,0,1.02.11,1.88.34,2.57.23.69.56,1.26,1.01,1.69.44.43.99.74,1.64.93.65.18,1.39.28,2.21.28.65,0,1.24-.08,1.77-.23.53-.15.99-.36,1.37-.62.38-.26.68-.56.9-.91.22-.35.33-.73.33-1.14l3.42.03c0,1.8-.67,3.25-2,4.36-1.33,1.11-3.27,1.66-5.81,1.66-3.06,0-5.34-.73-6.83-2.2-1.5-1.46-2.25-3.62-2.25-6.46s.73-4.9,2.18-6.38c1.45-1.48,3.56-2.21,6.31-2.21,3.08,0,5.28.76,6.61,2.29s1.99,3.79,1.99,6.79v.65ZM423.51,128.28h13.86v2.73h-13.86v-2.73Z"></path><path class="cls-1" d="M453.91,132.35c0,.83-.05,1.61-.16,2.36-.11.75-.37,1.41-.78,1.97-.41.56-1.04,1.01-1.87,1.35-.83.34-1.98.5-3.43.5-1.04,0-2-.08-2.88-.23-.88-.15-1.63-.42-2.26-.81-.63-.39-1.12-.91-1.48-1.56-.36-.65-.54-1.47-.54-2.47,0-.82.16-1.53.47-2.12.31-.58.78-1.08,1.38-1.5.61-.41,1.36-.74,2.25-.98.89-.24,1.91-.42,3.06-.55l6.83-.68.33,2.67-6.61.65c-.54.06-1.04.15-1.5.26-.46.11-.86.26-1.2.44-.35.18-.62.42-.81.7-.2.28-.29.63-.29,1.04,0,.3.07.58.2.81.13.24.34.44.63.62s.68.31,1.16.41c.48.1,1.06.15,1.76.15,1,0,1.83-.1,2.51-.31s1.21-.46,1.63-.75c.41-.29.71-.62.9-.98.18-.36.28-.69.28-.99h.46ZM452.99,125.92c-.28-.42-.64-.74-1.07-.96-.43-.22-.91-.36-1.43-.42s-1.01-.1-1.46-.1-.93.03-1.43.08c-.5.05-.96.18-1.37.37s-.75.49-1.02.88c-.27.39-.41.93-.41,1.63h-3.42c0-1.11.18-2.04.54-2.81.36-.77.87-1.4,1.53-1.89s1.47-.85,2.42-1.07c.95-.23,2.02-.34,3.19-.34,1.37,0,2.55.12,3.56.36,1.01.24,1.85.62,2.52,1.16.67.53,1.18,1.24,1.51,2.13.34.89.5,1.98.5,3.29v9.83h-3.74v-10.38c0-.74-.14-1.32-.42-1.74Z"></path><path class="cls-1" d="M460.09,138.05v-24.41h3.74v24.41h-3.74ZM475.99,133.64c-.4,1.07-.94,1.97-1.63,2.7-.68.73-1.48,1.27-2.39,1.64-.91.37-1.88.55-2.9.55-1.3,0-2.36-.23-3.17-.7-.81-.47-1.45-1.09-1.9-1.87-.46-.78-.76-1.69-.93-2.73-.16-1.04-.24-2.15-.24-3.32,0-1.3.09-2.48.28-3.55.18-1.06.51-1.97.98-2.72.47-.75,1.11-1.33,1.94-1.74.82-.41,1.88-.62,3.16-.62,1.11,0,2.12.18,3.04.55.92.37,1.7.92,2.34,1.64s1.14,1.63,1.5,2.7c.36,1.07.54,2.32.54,3.73s-.2,2.65-.6,3.73ZM471.69,126.05c-.68-.86-1.82-1.29-3.4-1.29-1.48,0-2.59.43-3.34,1.29-.75.86-1.12,2.13-1.12,3.82s.38,3,1.12,3.87c.75.87,1.86,1.3,3.34,1.3.67,0,1.28-.11,1.82-.34.54-.23,1.01-.56,1.4-.99.39-.43.69-.97.89-1.61s.31-1.38.31-2.23c0-1.69-.34-2.97-1.03-3.82Z"></path><path class="cls-1" d="M479.17,114.99c.38-.4,1-.6,1.87-.6s1.49.2,1.87.6c.38.4.57,1.01.57,1.84s-.19,1.44-.57,1.84c-.38.4-1,.6-1.87.6s-1.49-.2-1.87-.6c-.38-.4-.57-1.01-.57-1.84s.19-1.44.57-1.84ZM479.19,121.78h3.74v16.27h-3.74v-16.27Z"></path><path class="cls-1" d="M486.19,138.05v-24.41h3.74v24.41h-3.74Z"></path><path class="cls-1" d="M493.17,114.99c.38-.4,1-.6,1.87-.6s1.49.2,1.87.6c.38.4.57,1.01.57,1.84s-.19,1.44-.57,1.84c-.38.4-1,.6-1.87.6s-1.49-.2-1.87-.6c-.38-.4-.57-1.01-.57-1.84s.19-1.44.57-1.84ZM493.18,121.78h3.74v16.27h-3.74v-16.27Z"></path><path class="cls-1" d="M514.99,121.78v3.42h-15.78v-3.42h15.78ZM503.11,121.78l1.27-6.51h2.44v16.5c0,.41.03.82.08,1.22.05.4.16.75.33,1.06.16.3.4.55.7.73.3.18.71.28,1.2.28.37,0,.71-.05,1.03-.16.31-.11.59-.28.81-.52.23-.24.41-.56.54-.98.13-.41.2-.92.2-1.53h3.42c0,1.26-.14,2.32-.42,3.17-.28.86-.69,1.54-1.22,2.07-.53.52-1.17.89-1.92,1.11-.75.22-1.6.33-2.55.33s-1.8-.11-2.54-.34c-.74-.23-1.36-.6-1.86-1.11s-.87-1.16-1.12-1.95c-.25-.79-.37-1.74-.37-2.85v-10.51Z"></path><path class="cls-1" d="M529.92,132.35c0,.83-.05,1.61-.16,2.36-.11.75-.37,1.41-.78,1.97-.41.56-1.04,1.01-1.87,1.35-.83.34-1.98.5-3.43.5-1.04,0-2-.08-2.88-.23-.88-.15-1.63-.42-2.26-.81-.63-.39-1.12-.91-1.48-1.56-.36-.65-.54-1.47-.54-2.47,0-.82.16-1.53.47-2.12.31-.58.78-1.08,1.38-1.5s1.36-.74,2.25-.98c.89-.24,1.91-.42,3.06-.55l6.83-.68.33,2.67-6.61.65c-.54.06-1.04.15-1.5.26-.46.11-.86.26-1.2.44-.35.18-.62.42-.81.7-.2.28-.29.63-.29,1.04,0,.3.07.58.2.81.13.24.34.44.63.62s.68.31,1.16.41c.48.1,1.06.15,1.76.15,1,0,1.83-.1,2.51-.31s1.21-.46,1.63-.75c.41-.29.71-.62.9-.98.18-.36.28-.69.28-.99h.46ZM529.01,125.92c-.28-.42-.64-.74-1.07-.96-.43-.22-.91-.36-1.43-.42s-1.01-.1-1.46-.1-.93.03-1.43.08c-.5.05-.96.18-1.37.37s-.75.49-1.02.88c-.27.39-.41.93-.41,1.63h-3.42c0-1.11.18-2.04.54-2.81.36-.77.87-1.4,1.53-1.89s1.47-.85,2.42-1.07c.95-.23,2.02-.34,3.19-.34,1.37,0,2.55.12,3.56.36,1.01.24,1.85.62,2.52,1.16.67.53,1.18,1.24,1.51,2.13.34.89.5,1.98.5,3.29v9.83h-3.74v-10.38c0-.74-.14-1.32-.42-1.74Z"></path><path class="cls-1" d="M547.71,121.82c.99.36,1.81.86,2.47,1.5.66.64,1.17,1.38,1.51,2.23.35.85.52,1.76.52,2.73h-3.42c0-.52-.09-.99-.28-1.42-.18-.42-.47-.79-.86-1.11-.39-.31-.87-.56-1.43-.73-.56-.17-1.23-.26-1.99-.26-.72,0-1.38.09-1.99.26s-1.12.47-1.55.88c-.42.41-.75.94-.99,1.58-.24.64-.36,1.43-.36,2.36s.13,1.8.39,2.47c.26.67.62,1.21,1.07,1.61.46.4,1,.69,1.63.86s1.3.26,2.02.26c.78,0,1.45-.09,2-.26.55-.17,1.01-.42,1.37-.73.36-.31.63-.68.81-1.11s.28-.89.28-1.42h3.38c0,.98-.16,1.89-.47,2.73-.31.85-.8,1.59-1.45,2.23-.65.64-1.48,1.14-2.49,1.5s-2.2.54-3.56.54c-2.91,0-5.12-.73-6.62-2.18-1.51-1.45-2.26-3.6-2.26-6.44s.7-5.02,2.1-6.46c1.4-1.44,3.64-2.16,6.72-2.16,1.3,0,2.45.18,3.43.54ZM544.99,138.05l-.88,1.92c.39,0,.78.04,1.16.11.38.08.73.22,1.04.42s.56.49.75.85c.18.36.28.81.28,1.35,0,1.11-.3,1.9-.9,2.39-.6.49-1.39.73-2.39.73-.15,0-.41-.02-.76-.06-.36-.04-.73-.15-1.11-.33-.38-.17-.72-.44-1.01-.81s-.44-.87-.44-1.5h1.92c0,.26.14.45.42.57.28.12.58.18.88.18.41,0,.73-.1.96-.29s.34-.48.34-.85c0-.48-.2-.8-.59-.98-.39-.17-.91-.26-1.56-.26h-1.3l1.3-3.45h1.89Z"></path><path class="cls-1" d="M567.02,132.35c0,.83-.05,1.61-.16,2.36-.11.75-.37,1.41-.78,1.97-.41.56-1.04,1.01-1.87,1.35-.83.34-1.98.5-3.43.5-1.04,0-2-.08-2.88-.23-.88-.15-1.63-.42-2.26-.81-.63-.39-1.12-.91-1.48-1.56-.36-.65-.54-1.47-.54-2.47,0-.82.16-1.53.47-2.12.31-.58.78-1.08,1.38-1.5s1.36-.74,2.25-.98c.89-.24,1.91-.42,3.06-.55l6.83-.68.33,2.67-6.61.65c-.54.06-1.04.15-1.5.26-.46.11-.86.26-1.2.44-.35.18-.62.42-.81.7-.2.28-.29.63-.29,1.04,0,.3.07.58.2.81.13.24.34.44.63.62s.68.31,1.16.41c.48.1,1.06.15,1.76.15,1,0,1.83-.1,2.51-.31s1.21-.46,1.63-.75c.41-.29.71-.62.9-.98.18-.36.28-.69.28-.99h.46ZM566.11,125.92c-.28-.42-.64-.74-1.07-.96-.43-.22-.91-.36-1.43-.42s-1.01-.1-1.46-.1-.93.03-1.43.08c-.5.05-.96.18-1.37.37s-.75.49-1.02.88c-.27.39-.41.93-.41,1.63h-3.42c0-1.11.18-2.04.54-2.81.36-.77.87-1.4,1.53-1.89s1.47-.85,2.42-1.07c.95-.23,2.02-.34,3.19-.34,1.37,0,2.55.12,3.56.36,1.01.24,1.85.62,2.52,1.16.67.53,1.18,1.24,1.51,2.13.34.89.5,1.98.5,3.29v9.83h-3.74v-10.38c0-.74-.14-1.32-.42-1.74ZM555.81,117.01c.12-.6.31-1.12.59-1.58.27-.46.63-.82,1.09-1.09.46-.27,1.03-.41,1.72-.41.65,0,1.23.15,1.72.44s.96.61,1.38.96c.42.35.82.67,1.2.96.38.29.78.44,1.19.44.5,0,.81-.24.94-.72.13-.48.2-1.06.2-1.76h2.44c0,.65-.05,1.27-.15,1.87s-.26,1.12-.49,1.56c-.23.45-.55.8-.96,1.07s-.93.41-1.56.41c-.76,0-1.39-.15-1.89-.44s-.95-.61-1.35-.96-.79-.67-1.16-.96c-.37-.29-.8-.44-1.3-.44-.2,0-.38.04-.55.13-.17.09-.32.23-.44.42s-.21.45-.28.76c-.07.32-.1.7-.1,1.16h-2.44c0-.63.06-1.24.18-1.84Z"></path><path class="cls-1" d="M574.78,123.47c1.49-1.45,3.77-2.18,6.85-2.18s5.4.73,6.9,2.18c1.5,1.45,2.25,3.6,2.25,6.44s-.75,4.99-2.25,6.44c-1.5,1.45-3.8,2.18-6.9,2.18s-5.36-.73-6.85-2.18c-1.49-1.45-2.23-3.6-2.23-6.44s.74-4.99,2.23-6.44ZM577.73,133.75c.85.87,2.15,1.3,3.91,1.3s3.1-.43,3.95-1.3c.86-.87,1.29-2.15,1.29-3.84s-.43-2.97-1.29-3.84c-.86-.87-2.18-1.3-3.95-1.3s-3.14.43-3.95,1.3c-.81.87-1.22,2.15-1.22,3.84s.42,2.97,1.27,3.84Z"></path><path class="cls-1" d="M601.84,115.27h3.91v22.78h-3.91v-22.78ZM605.75,115.27l10.51,19.72v3.06h-2.54l-10.8-20.24,2.83-2.54ZM616.26,138.05h-2.54v-3.06l10.51-19.72,2.8,2.54-10.77,20.24ZM624.23,138.05v-22.78h3.9v22.78h-3.9Z"></path><path class="cls-1" d="M634.8,121.78v8.75c0,.7.06,1.32.18,1.87.12.55.34,1.03.67,1.42.33.39.76.69,1.32.91.55.22,1.26.33,2.13.33,1.56,0,2.74-.43,3.55-1.29.8-.86,1.2-2.13,1.2-3.82v-.39h1.3v.36c0,1.28-.12,2.45-.36,3.51-.24,1.06-.63,1.97-1.19,2.73-.55.76-1.28,1.35-2.18,1.76-.9.41-2.01.62-3.33.62-1.17,0-2.2-.14-3.08-.42-.88-.28-1.62-.73-2.21-1.35-.6-.62-1.04-1.42-1.32-2.39-.28-.98-.42-2.15-.42-3.51v-9.08h3.74ZM647.56,121.78v16.27h-3.71v-16.27h3.71Z"></path><path class="cls-1" d="M650.7,123.96c.31-.61.79-1.11,1.43-1.51.64-.4,1.43-.69,2.38-.88.94-.18,2.04-.28,3.3-.28,2.82,0,4.89.47,6.21,1.42s1.99,2.48,1.99,4.6h-3.42c0-.56-.11-1.02-.34-1.38-.23-.36-.57-.65-1.02-.86-.46-.22-1.03-.37-1.71-.47s-1.47-.15-2.36-.15c-.78,0-1.41.05-1.89.15-.48.1-.85.23-1.12.39-.27.16-.46.34-.55.54-.1.19-.15.39-.15.58,0,.24.09.46.28.65.18.2.48.39.88.57.4.18.92.36,1.55.52.63.16,1.4.33,2.31.5,1.17.2,2.23.39,3.17.58.94.2,1.76.47,2.44.83.68.36,1.21.84,1.58,1.43.37.6.55,1.38.55,2.36,0,1.8-.64,3.08-1.92,3.84-1.28.76-3.16,1.14-5.63,1.14-2.95,0-5.1-.47-6.46-1.42-1.36-.94-2.03-2.48-2.03-4.6h3.42c0,.54.13,1,.39,1.37.26.37.63.66,1.12.88.49.22,1.08.38,1.77.47s1.45.15,2.28.15c.69,0,1.29-.04,1.77-.13.49-.09.88-.21,1.19-.36.3-.15.52-.33.65-.54.13-.21.2-.43.2-.67,0-.37-.11-.67-.33-.9-.22-.23-.55-.41-.99-.54-.44-.13-1-.24-1.66-.34-.66-.1-1.42-.22-2.26-.38-.89-.13-1.78-.3-2.67-.52-.89-.22-1.7-.52-2.42-.91-.73-.39-1.31-.9-1.74-1.53-.43-.63-.65-1.43-.65-2.41,0-.87.16-1.61.47-2.21Z"></path><path class="cls-1" d="M680.41,121.82c.99.36,1.81.86,2.47,1.5.66.64,1.17,1.38,1.51,2.23.35.85.52,1.76.52,2.73h-3.42c0-.52-.09-.99-.28-1.42-.18-.42-.47-.79-.86-1.11-.39-.31-.87-.56-1.43-.73-.56-.17-1.23-.26-1.99-.26-.72,0-1.38.09-1.99.26s-1.12.47-1.55.88c-.42.41-.75.94-.99,1.58-.24.64-.36,1.43-.36,2.36s.13,1.8.39,2.47c.26.67.62,1.21,1.07,1.61.46.4,1,.69,1.63.86s1.3.26,2.02.26c.78,0,1.45-.09,2-.26.55-.17,1.01-.42,1.37-.73.36-.31.63-.68.81-1.11s.28-.89.28-1.42h3.38c0,.98-.16,1.89-.47,2.73-.31.85-.8,1.59-1.45,2.23-.65.64-1.48,1.14-2.49,1.5s-2.2.54-3.56.54c-2.91,0-5.12-.73-6.62-2.18-1.51-1.45-2.26-3.6-2.26-6.44s.7-5.02,2.1-6.46c1.4-1.44,3.64-2.16,6.72-2.16,1.3,0,2.45.18,3.43.54Z"></path><path class="cls-1" d="M690.71,121.78v8.75c0,.7.06,1.32.18,1.87.12.55.34,1.03.67,1.42.33.39.76.69,1.32.91.55.22,1.26.33,2.13.33,1.56,0,2.74-.43,3.55-1.29.8-.86,1.2-2.13,1.2-3.82v-.39h1.3v.36c0,1.28-.12,2.45-.36,3.51-.24,1.06-.63,1.97-1.19,2.73-.55.76-1.28,1.35-2.18,1.76-.9.41-2.01.62-3.33.62-1.17,0-2.2-.14-3.08-.42-.88-.28-1.62-.73-2.21-1.35-.6-.62-1.04-1.42-1.32-2.39-.28-.98-.42-2.15-.42-3.51v-9.08h3.74ZM703.47,121.78v16.27h-3.71v-16.27h3.71Z"></path><path class="cls-1" d="M706.72,138.05v-24.41h3.74v24.41h-3.74Z"></path><path class="cls-1" d="M715.3,123.47c1.49-1.45,3.77-2.18,6.85-2.18s5.4.73,6.9,2.18c1.5,1.45,2.25,3.6,2.25,6.44s-.75,4.99-2.25,6.44c-1.5,1.45-3.8,2.18-6.9,2.18s-5.36-.73-6.85-2.18c-1.49-1.45-2.23-3.6-2.23-6.44s.74-4.99,2.23-6.44ZM718.24,133.75c.85.87,2.15,1.3,3.91,1.3s3.1-.43,3.95-1.3c.86-.87,1.29-2.15,1.29-3.84s-.43-2.97-1.29-3.84c-.86-.87-2.18-1.3-3.95-1.3s-3.14.43-3.95,1.3c-.81.87-1.22,2.15-1.22,3.84s.42,2.97,1.27,3.84Z"></path><path class="cls-1" d="M750.33,131.02h-3.64v-1.72c0-.87-.11-1.61-.34-2.23-.23-.62-.55-1.12-.96-1.5-.41-.38-.91-.66-1.5-.85-.58-.18-1.24-.28-1.95-.28s-1.33.11-1.9.34c-.58.23-1.08.57-1.51,1.02-.43.46-.77,1.03-1.01,1.71-.24.68-.36,1.48-.36,2.39,0,1.02.11,1.88.34,2.57.23.69.56,1.26,1.01,1.69.44.43.99.74,1.64.93.65.18,1.39.28,2.21.28.65,0,1.24-.08,1.77-.23.53-.15.99-.36,1.37-.62.38-.26.68-.56.89-.91.22-.35.33-.73.33-1.14l3.42.03c0,1.8-.67,3.25-2,4.36s-3.27,1.66-5.81,1.66c-3.06,0-5.34-.73-6.83-2.2-1.5-1.46-2.25-3.62-2.25-6.46s.73-4.9,2.18-6.38,3.56-2.21,6.31-2.21c3.08,0,5.28.76,6.61,2.29,1.32,1.53,1.98,3.79,1.98,6.79v.65ZM734.97,128.28h13.86v2.73h-13.86v-2.73Z"></path><path class="cls-1" d="M752.82,123.96c.31-.61.79-1.11,1.43-1.51.64-.4,1.43-.69,2.38-.88.94-.18,2.04-.28,3.3-.28,2.82,0,4.89.47,6.21,1.42s1.99,2.48,1.99,4.6h-3.42c0-.56-.11-1.02-.34-1.38-.23-.36-.57-.65-1.02-.86-.46-.22-1.03-.37-1.71-.47s-1.47-.15-2.36-.15c-.78,0-1.41.05-1.89.15-.48.1-.85.23-1.12.39-.27.16-.46.34-.55.54-.1.19-.15.39-.15.58,0,.24.09.46.28.65.18.2.48.39.88.57.4.18.92.36,1.55.52.63.16,1.4.33,2.31.5,1.17.2,2.23.39,3.17.58.94.2,1.76.47,2.44.83.68.36,1.21.84,1.58,1.43.37.6.55,1.38.55,2.36,0,1.8-.64,3.08-1.92,3.84-1.28.76-3.16,1.14-5.63,1.14-2.95,0-5.1-.47-6.46-1.42-1.36-.94-2.03-2.48-2.03-4.6h3.42c0,.54.13,1,.39,1.37.26.37.63.66,1.12.88.49.22,1.08.38,1.77.47s1.45.15,2.28.15c.69,0,1.29-.04,1.77-.13.49-.09.88-.21,1.19-.36.3-.15.52-.33.65-.54.13-.21.2-.43.2-.67,0-.37-.11-.67-.33-.9-.22-.23-.55-.41-.99-.54-.44-.13-1-.24-1.66-.34-.66-.1-1.42-.22-2.26-.38-.89-.13-1.78-.3-2.67-.52-.89-.22-1.7-.52-2.42-.91-.73-.39-1.31-.9-1.74-1.53-.43-.63-.65-1.43-.65-2.41,0-.87.16-1.61.47-2.21Z"></path><path class="cls-1" d="M772.34,123.47c1.38-1.45,3.28-2.18,5.71-2.18,1.37,0,2.48.21,3.34.62.86.41,1.53.99,2.03,1.74.5.75.84,1.66,1.03,2.72.18,1.06.28,2.25.28,3.55,0,1.17-.09,2.28-.26,3.32-.17,1.04-.5,1.95-.98,2.73-.48.78-1.14,1.41-1.99,1.87-.85.47-1.95.7-3.32.7-1.13,0-2.17-.18-3.14-.55-.97-.37-1.8-.92-2.51-1.64-.71-.73-1.26-1.63-1.66-2.7-.4-1.07-.6-2.32-.6-3.73,0-2.84.69-4.99,2.07-6.44ZM775.37,133.75c.79.87,1.97,1.3,3.53,1.3s2.81-.43,3.61-1.3c.8-.87,1.2-2.16,1.2-3.87s-.4-2.97-1.2-3.82c-.8-.86-2.01-1.29-3.61-1.29-.89,0-1.64.11-2.25.33-.61.22-1.1.54-1.46.98-.37.43-.63.97-.78,1.59-.15.63-.23,1.37-.23,2.21,0,1.71.4,3,1.19,3.87ZM783.72,121.78h3.71v22.78h-3.71v-22.78Z"></path><path class="cls-1" d="M794.1,121.78v8.75c0,.7.06,1.32.18,1.87.12.55.34,1.03.67,1.42.33.39.76.69,1.32.91.55.22,1.26.33,2.13.33,1.56,0,2.74-.43,3.55-1.29.8-.86,1.2-2.13,1.2-3.82v-.39h1.3v.36c0,1.28-.12,2.45-.36,3.51-.24,1.06-.63,1.97-1.19,2.73-.55.76-1.28,1.35-2.18,1.76-.9.41-2.01.62-3.33.62-1.17,0-2.2-.14-3.08-.42-.88-.28-1.62-.73-2.21-1.35-.6-.62-1.04-1.42-1.32-2.39-.28-.98-.42-2.15-.42-3.51v-9.08h3.74ZM806.85,121.78v16.27h-3.71v-16.27h3.71Z"></path><path class="cls-1" d="M826.54,131.02h-3.64v-1.72c0-.87-.11-1.61-.34-2.23-.23-.62-.55-1.12-.96-1.5-.41-.38-.91-.66-1.5-.85-.58-.18-1.24-.28-1.95-.28s-1.33.11-1.9.34c-.58.23-1.08.57-1.51,1.02-.43.46-.77,1.03-1.01,1.71-.24.68-.36,1.48-.36,2.39,0,1.02.11,1.88.34,2.57.23.69.56,1.26,1.01,1.69.44.43.99.74,1.64.93.65.18,1.39.28,2.21.28.65,0,1.24-.08,1.77-.23.53-.15.99-.36,1.37-.62.38-.26.68-.56.89-.91.22-.35.33-.73.33-1.14l3.42.03c0,1.8-.67,3.25-2,4.36s-3.27,1.66-5.81,1.66c-3.06,0-5.34-.73-6.83-2.2-1.5-1.46-2.25-3.62-2.25-6.46s.73-4.9,2.18-6.38,3.56-2.21,6.31-2.21c3.08,0,5.28.76,6.61,2.29,1.32,1.53,1.98,3.79,1.98,6.79v.65ZM811.18,128.28h13.86v2.73h-13.86v-2.73Z"></path><path class="cls-1" d="M829.14,138.05v-24.41h3.74v24.41h-3.74Z"></path><path class="cls-1" d="M852.57,131.02h-3.64v-1.72c0-.87-.11-1.61-.34-2.23-.23-.62-.55-1.12-.96-1.5-.41-.38-.91-.66-1.5-.85-.58-.18-1.24-.28-1.95-.28s-1.33.11-1.9.34c-.58.23-1.08.57-1.51,1.02-.43.46-.77,1.03-1.01,1.71-.24.68-.36,1.48-.36,2.39,0,1.02.11,1.88.34,2.57.23.69.56,1.26,1.01,1.69.44.43.99.74,1.64.93.65.18,1.39.28,2.21.28.65,0,1.24-.08,1.77-.23.53-.15.99-.36,1.37-.62.38-.26.68-.56.89-.91.22-.35.33-.73.33-1.14l3.42.03c0,1.8-.67,3.25-2,4.36s-3.27,1.66-5.81,1.66c-3.06,0-5.34-.73-6.83-2.2-1.5-1.46-2.25-3.62-2.25-6.46s.73-4.9,2.18-6.38,3.56-2.21,6.31-2.21c3.08,0,5.28.76,6.61,2.29,1.32,1.53,1.98,3.79,1.98,6.79v.65ZM837.21,128.28h13.86v2.73h-13.86v-2.73Z"></path><path class="cls-1" d="M869.98,121.78v3.42h-15.78v-3.42h15.78ZM858.11,121.78l1.27-6.51h2.44v16.5c0,.41.03.82.08,1.22.05.4.16.75.33,1.06.16.3.4.55.7.73.3.18.71.28,1.2.28.37,0,.71-.05,1.03-.16.31-.11.59-.28.81-.52.23-.24.41-.56.54-.98.13-.41.2-.92.2-1.53h3.42c0,1.26-.14,2.32-.42,3.17-.28.86-.69,1.54-1.22,2.07-.53.52-1.17.89-1.92,1.11-.75.22-1.6.33-2.55.33s-1.8-.11-2.54-.34c-.74-.23-1.36-.6-1.86-1.11s-.87-1.16-1.12-1.95c-.25-.79-.37-1.74-.37-2.85v-10.51Z"></path><path class="cls-1" d="M872.47,114.99c.38-.4,1-.6,1.87-.6s1.49.2,1.87.6c.38.4.57,1.01.57,1.84s-.19,1.44-.57,1.84c-.38.4-1,.6-1.87.6s-1.49-.2-1.87-.6c-.38-.4-.57-1.01-.57-1.84s.19-1.44.57-1.84ZM872.49,121.78h3.74v16.27h-3.74v-16.27Z"></path><path class="cls-1" d="M891.09,121.82c.99.36,1.81.86,2.47,1.5.66.64,1.17,1.38,1.51,2.23.35.85.52,1.76.52,2.73h-3.42c0-.52-.09-.99-.28-1.42-.18-.42-.47-.79-.86-1.11-.39-.31-.87-.56-1.43-.73-.56-.17-1.23-.26-1.99-.26-.72,0-1.38.09-1.99.26s-1.12.47-1.55.88c-.42.41-.75.94-.99,1.58-.24.64-.36,1.43-.36,2.36s.13,1.8.39,2.47c.26.67.62,1.21,1.07,1.61.46.4,1,.69,1.63.86s1.3.26,2.02.26c.78,0,1.45-.09,2-.26.55-.17,1.01-.42,1.37-.73.36-.31.63-.68.81-1.11s.28-.89.28-1.42h3.38c0,.98-.16,1.89-.47,2.73-.31.85-.8,1.59-1.45,2.23-.65.64-1.48,1.14-2.49,1.5s-2.2.54-3.56.54c-2.91,0-5.12-.73-6.62-2.18-1.51-1.45-2.26-3.6-2.26-6.44s.7-5.02,2.1-6.46c1.4-1.44,3.64-2.16,6.72-2.16,1.3,0,2.45.18,3.43.54Z"></path><path class="cls-1" d="M910.4,132.35c0,.83-.05,1.61-.16,2.36-.11.75-.37,1.41-.78,1.97-.41.56-1.04,1.01-1.87,1.35-.83.34-1.98.5-3.43.5-1.04,0-2-.08-2.88-.23-.88-.15-1.63-.42-2.26-.81-.63-.39-1.12-.91-1.48-1.56-.36-.65-.54-1.47-.54-2.47,0-.82.16-1.53.47-2.12.31-.58.78-1.08,1.38-1.5s1.36-.74,2.25-.98c.89-.24,1.91-.42,3.06-.55l6.83-.68.33,2.67-6.61.65c-.54.06-1.04.15-1.5.26-.46.11-.86.26-1.2.44-.35.18-.62.42-.81.7-.2.28-.29.63-.29,1.04,0,.3.07.58.2.81.13.24.34.44.63.62s.68.31,1.16.41c.48.1,1.06.15,1.76.15,1,0,1.83-.1,2.51-.31s1.21-.46,1.63-.75c.41-.29.71-.62.9-.98.18-.36.28-.69.28-.99h.46ZM909.49,125.92c-.28-.42-.64-.74-1.07-.96-.43-.22-.91-.36-1.43-.42s-1.01-.1-1.46-.1-.93.03-1.43.08c-.5.05-.96.18-1.37.37s-.75.49-1.02.88c-.27.39-.41.93-.41,1.63h-3.42c0-1.11.18-2.04.54-2.81.36-.77.87-1.4,1.53-1.89s1.47-.85,2.42-1.07c.95-.23,2.02-.34,3.19-.34,1.37,0,2.55.12,3.56.36,1.01.24,1.85.62,2.52,1.16.67.53,1.18,1.24,1.51,2.13.34.89.5,1.98.5,3.29v9.83h-3.74v-10.38c0-.74-.14-1.32-.42-1.74Z"></path></g></g></g></svg>