<svg xmlns="http://www.w3.org/2000/svg" id="Camada_2" data-name="Camada 2" viewBox="0 0 103.56 26.73"><defs><style>      .cls-1, .cls-2 {        fill: #fff;      }      .cls-2 {        fill-rule: evenodd;      }    </style></defs><g id="Camada_1-2" data-name="Camada 1"><g><g><path class="cls-1" d="M30.06,3.86s-.05-.08-.05-.14V1.01c0-.06.02-.11.05-.15.04-.03.08-.05.14-.05h1.59c.13,0,.25.03.35.08.1.05.17.13.23.23.05.1.08.22.08.36v.72c0,.22-.06.39-.17.51-.12.12-.29.18-.51.18h-.93s-.06,0-.07.03c-.02.02-.03.04-.03.07v.71c0,.06-.02.11-.05.15-.03.03-.08.05-.15.05h-.33c-.06,0-.11-.02-.14-.05ZM31.67,2.16s.04-.08.04-.14v-.33c0-.05-.02-.1-.06-.13-.04-.03-.08-.05-.14-.05h-.69s-.06,0-.07.03c-.02.02-.03.04-.03.07v.5s0,.06.03.07c.02.02.04.03.07.03h.69c.07,0,.12-.01.15-.04Z"></path><path class="cls-1" d="M33.18,3.83c-.1-.05-.18-.13-.23-.23-.05-.1-.08-.22-.08-.35v-1.77c0-.14.03-.26.08-.36.05-.1.13-.18.23-.23.1-.05.23-.08.37-.08h1.06c.14,0,.26.03.37.08.1.05.18.13.23.23.05.1.08.22.08.36v1.77c0,.13-.03.25-.08.35-.05.1-.13.18-.23.23-.1.05-.22.08-.36.08h-1.06c-.14,0-.26-.03-.37-.08ZM34.53,3.17s.04-.09.04-.16v-1.3c0-.08-.01-.13-.04-.16-.03-.03-.08-.05-.14-.05h-.59c-.07,0-.12.02-.15.05-.03.03-.05.09-.05.16v1.3c0,.07.02.12.05.16.03.03.08.05.15.05h.62c.06,0,.1-.02.13-.05ZM33.83.63s-.03-.05-.03-.08c0-.04.01-.08.04-.12l.1-.18c.03-.05.06-.09.1-.11.04-.02.08-.03.14-.03h.32c.05,0,.09.01.13.03.03.02.05.05.04.09,0,.04-.02.08-.05.12l-.15.2s-.07.07-.1.09c-.04.02-.08.03-.13.03h-.29s-.07,0-.09-.03Z"></path><path class="cls-1" d="M35.83,3.86s-.05-.08-.05-.15v-.3c0-.06.02-.11.05-.15.03-.03.08-.05.15-.05h1.26c.06,0,.1-.02.13-.06.03-.04.04-.09.04-.15v-.07s0-.06-.01-.08c0-.02-.03-.04-.05-.05h-.02s-1.16-.24-1.16-.24c-.01,0-.02,0-.04,0-.14-.03-.25-.09-.32-.18s-.11-.21-.11-.37v-.6c0-.13.02-.24.07-.33.05-.09.12-.16.21-.2s.21-.07.35-.07h1.46c.06,0,.11.02.15.05.04.03.05.08.05.15v.3c0,.06-.02.11-.05.15-.03.03-.08.05-.15.05h-1.19c-.06,0-.11.02-.14.05-.03.03-.05.08-.05.13v.1s0,.05.02.08c.02.03.04.04.08.05l1.16.24c.14.03.25.09.32.19.08.1.12.22.12.38v.6c0,.12-.02.23-.08.32-.05.09-.12.15-.22.2-.1.05-.21.07-.34.07h-1.51c-.06,0-.11-.02-.15-.05Z"></path><path class="cls-1" d="M38.64,2.67s-.05-.08-.05-.14v-.31c0-.06.02-.11.05-.15.04-.03.08-.05.14-.05h1.03c.06,0,.11.02.15.05.03.03.05.08.05.15v.31c0,.06-.02.11-.05.14s-.08.05-.15.05h-1.03c-.06,0-.11-.02-.14-.05Z"></path><path class="cls-1" d="M40.79,3.83c-.1-.05-.18-.13-.24-.22s-.08-.22-.08-.35v-1.77c0-.14.03-.26.08-.36.05-.1.13-.18.24-.23.1-.05.22-.08.36-.08h1.45c.06,0,.11.02.15.05.03.03.05.08.05.15v.3c0,.06-.02.11-.05.15-.03.03-.08.05-.15.05h-1.16c-.09,0-.15.02-.19.05s-.06.1-.06.18v1.25c0,.08.02.13.06.17s.09.06.16.06h.65s.06,0,.07-.03c.02-.02.03-.04.03-.08v-.77c0-.06.02-.11.05-.15.03-.03.08-.05.15-.05h.34c.06,0,.11.02.15.05.03.03.05.08.05.15v1.36c0,.06-.02.11-.05.15-.03.03-.08.05-.15.05h-1.53c-.14,0-.27-.03-.37-.08Z"></path><path class="cls-1" d="M43.41,3.86s-.05-.08-.05-.14V1.01c0-.06.02-.11.05-.15.04-.03.08-.05.14-.05h1.5c.16,0,.29.02.4.07.11.04.19.11.25.21.06.09.09.21.09.35v.7c0,.11-.02.2-.05.28-.03.08-.08.15-.13.21-.06.06-.13.1-.21.13-.02.01-.04.02-.05.04s-.02.03-.02.05c0,0,0,.01,0,.02s0,0,0,.01c0,0,0,0,0,0,0,0,0,0,0,0l.33.8s0,.01,0,.01,0,0,0,.01c0,.01,0,.02,0,.03,0,0,0,.02,0,.03,0,.04-.01.07-.04.1-.03.02-.07.04-.13.04h-.31c-.06,0-.1-.01-.14-.04-.04-.03-.07-.06-.09-.12l-.37-.88s-.03-.04-.05-.05c-.02-.01-.05-.02-.07-.02h-.31s-.06,0-.07.03-.03.04-.03.07v.81c0,.06-.02.11-.05.15-.03.03-.08.05-.15.05h-.33c-.06,0-.11-.02-.14-.05ZM44.98,2.09s.05-.04.06-.07c.01-.03.02-.07.02-.12v-.23s0-.08-.02-.1c-.02-.03-.04-.05-.07-.06-.03-.01-.06-.02-.11-.02h-.69s-.06,0-.07.03c-.02.02-.03.04-.03.07v.41s0,.06.03.07c.02.02.04.03.07.03h.69s.08,0,.11-.02Z"></path><path class="cls-1" d="M46.1,3.87s-.05-.06-.05-.11c0-.01,0-.04.02-.08l.89-2.71c.02-.06.05-.1.09-.12s.09-.04.14-.04h.48c.06,0,.11.01.14.04s.06.07.08.12l.89,2.71s.01.05.01.08c0,.04-.02.08-.05.11s-.07.04-.13.04h-.36c-.06,0-.11-.01-.14-.04-.04-.03-.06-.07-.08-.12l-.08-.26s-.02-.05-.04-.06-.04-.02-.07-.02h-.83s-.05,0-.07.02-.03.03-.04.06l-.08.26c-.02.06-.05.1-.08.12-.04.03-.08.04-.14.04h-.36c-.06,0-.1-.01-.13-.04ZM47.65,2.69s.02-.03.02-.05c0-.01,0-.03,0-.04l-.18-.58s-.02-.04-.03-.05-.02-.02-.04-.02-.03,0-.04.01c-.01,0-.02.03-.03.05l-.18.58s0,.02,0,.04c0,.02,0,.04.02.05.02.01.04.02.06.02h.33s.05,0,.06-.02Z"></path><path class="cls-1" d="M49.22,3.86s-.05-.08-.05-.14V1.01c0-.06.02-.11.05-.15.04-.03.08-.05.14-.05h1.56c.15,0,.27.03.37.08s.18.13.23.24c.05.1.08.23.08.38v1.69c0,.15-.03.28-.08.39-.05.1-.13.18-.23.24-.1.05-.23.08-.37.08h-1.56c-.06,0-.11-.02-.14-.05ZM50.84,3.17s.04-.09.04-.16v-1.31c0-.07-.02-.12-.05-.15s-.08-.05-.16-.05h-.68s-.05,0-.07.03c-.02.02-.03.04-.03.07v1.52s0,.06.03.08c.02.02.04.03.07.03h.69c.07,0,.12-.02.15-.05Z"></path><path class="cls-1" d="M52.4,3.83c-.11-.05-.19-.13-.25-.23-.06-.1-.09-.22-.09-.37V1.01c0-.06.02-.11.05-.15.04-.03.08-.05.14-.05h.32c.06,0,.11.02.15.05.03.03.05.08.05.15v1.94c0,.09.02.15.06.2.04.05.1.07.18.07h.52c.08,0,.14-.02.18-.07.04-.04.05-.11.05-.21v-1.94c0-.06.02-.11.05-.15.04-.03.08-.05.15-.05h.31c.06,0,.11.02.15.05.03.03.05.08.05.15v2.22c0,.15-.03.27-.08.37-.06.1-.14.18-.24.23-.11.05-.23.08-.38.08h-1c-.15,0-.28-.03-.38-.08Z"></path><path class="cls-1" d="M54.84,3.87s-.05-.06-.05-.11c0-.01,0-.04.02-.08l.89-2.71c.02-.06.05-.1.09-.12s.09-.04.14-.04h.48c.06,0,.11.01.14.04s.06.07.08.12l.89,2.71s.01.05.01.08c0,.04-.02.08-.05.11s-.07.04-.13.04h-.36c-.06,0-.11-.01-.14-.04-.04-.03-.06-.07-.08-.12l-.08-.26s-.02-.05-.04-.06-.04-.02-.07-.02h-.83s-.05,0-.07.02-.03.03-.04.06l-.08.26c-.02.06-.05.1-.08.12-.04.03-.08.04-.14.04h-.36c-.06,0-.1-.01-.13-.04ZM56.39,2.69s.02-.03.02-.05c0-.01,0-.03,0-.04l-.18-.58s-.02-.04-.03-.05-.02-.02-.04-.02-.03,0-.04.01c-.01,0-.02.03-.03.05l-.18.58s0,.02,0,.04c0,.02,0,.04.02.05.02.01.04.02.06.02h.33s.05,0,.06-.02Z"></path><path class="cls-1" d="M58.08,3.83c-.1-.05-.18-.13-.23-.22s-.08-.22-.08-.35v-1.77c0-.14.03-.26.08-.36.06-.1.14-.18.24-.23.1-.05.22-.08.36-.08h1.34c.06,0,.11.02.15.05.03.03.05.08.05.15v.3c0,.06-.02.11-.05.15-.03.03-.08.05-.15.05h-1.08c-.08,0-.14.02-.17.05-.04.04-.06.09-.06.16v1.29c0,.07.02.12.06.16s.09.05.16.05h1.09c.06,0,.11.02.15.05.03.03.05.08.05.15v.3c0,.06-.02.11-.05.15-.03.03-.08.05-.15.05h-1.34c-.15,0-.27-.03-.38-.08ZM58.39,4.45s-.05-.08-.05-.15v-.04c0-.06.02-.11.05-.15.03-.03.08-.05.15-.05h.26s.06,0,.08-.03c.02-.02.02-.05.02-.09v-.19c0-.06.02-.11.05-.15.03-.03.08-.05.15-.05h.15c.06,0,.11.02.15.05.03.03.05.08.05.15v.34c0,.14-.03.24-.1.3-.07.07-.16.1-.29.1h-.51c-.06,0-.11-.02-.15-.05Z"></path><path class="cls-1" d="M60.37,3.87s-.05-.06-.05-.11c0-.01,0-.04.02-.08l.89-2.71c.02-.06.05-.1.09-.12s.09-.04.14-.04h.48c.06,0,.11.01.14.04s.06.07.08.12l.89,2.71s.01.05.01.08c0,.04-.02.08-.05.11s-.07.04-.13.04h-.36c-.06,0-.11-.01-.14-.04-.04-.03-.06-.07-.08-.12l-.08-.26s-.02-.05-.04-.06-.04-.02-.07-.02h-.83s-.05,0-.07.02-.03.03-.04.06l-.08.26c-.02.06-.05.1-.08.12-.04.03-.08.04-.14.04h-.36c-.06,0-.1-.01-.13-.04ZM60.99.58s-.05-.09-.05-.16v-.09c0-.11.04-.19.13-.24.08-.05.18-.07.3-.04l.64.13s.02,0,.03,0c0,0,0-.01,0-.03v-.02s.02-.07.05-.1.08-.04.13-.04h.02c.06,0,.12.02.15.05s.06.09.06.16v.06c0,.12-.04.21-.12.28-.08.06-.18.08-.3.05-.06-.01-.12-.02-.2-.04-.07-.01-.15-.03-.22-.04-.12-.03-.19-.04-.21-.04-.03,0-.05,0-.06,0s-.02.02-.02.04v.03s-.02.05-.05.07c-.03.02-.08.03-.13.03h-.02c-.06,0-.11-.02-.15-.05ZM61.92,2.69s.02-.03.02-.05c0-.01,0-.03,0-.04l-.18-.58s-.02-.04-.03-.05-.02-.02-.04-.02-.03,0-.04.01c-.01,0-.02.03-.03.05l-.18.58s0,.02,0,.04c0,.02,0,.04.02.05.02.01.04.02.06.02h.33s.05,0,.06-.02Z"></path><path class="cls-1" d="M63.61,3.83c-.1-.05-.18-.13-.23-.23-.05-.1-.08-.22-.08-.35v-1.77c0-.14.03-.26.08-.36.05-.1.13-.18.23-.23.1-.05.23-.08.37-.08h1.06c.14,0,.26.03.37.08.1.05.18.13.23.23.05.1.08.22.08.36v1.77c0,.13-.03.25-.08.35-.05.1-.13.18-.23.23-.1.05-.22.08-.36.08h-1.06c-.14,0-.26-.03-.37-.08ZM64.96,3.17s.04-.09.04-.16v-1.3c0-.08-.01-.13-.04-.16-.03-.03-.08-.05-.14-.05h-.59c-.07,0-.12.02-.15.05-.03.03-.05.09-.05.16v1.3c0,.07.02.12.05.16.03.03.08.05.15.05h.62c.06,0,.1-.02.13-.05Z"></path><path class="cls-1" d="M67.81,3.86s-.05-.08-.05-.14V1.01c0-.06.02-.11.05-.15.04-.03.08-.05.14-.05h1.78c.06,0,.11.02.15.05.03.03.05.08.05.15v.3c0,.06-.02.11-.05.15-.03.03-.08.05-.15.05h-1.15s-.05,0-.07.03c-.02.02-.03.04-.03.07v.27s0,.05.03.07c.02.02.04.03.07.03h.85c.06,0,.11.02.15.05s.05.08.05.15v.31c0,.06-.02.11-.05.15-.03.03-.08.05-.15.05h-.85s-.05,0-.07.03c-.02.02-.03.04-.03.08v.34s0,.06.03.08c.02.02.04.03.07.03h1.15c.06,0,.11.02.15.05.03.03.05.08.05.15v.3c0,.06-.02.11-.05.15-.03.03-.08.05-.15.05h-1.78c-.06,0-.11-.02-.14-.05Z"></path><path class="cls-1" d="M70.45,3.86s-.05-.08-.05-.14V1.01c0-.06.02-.11.05-.15.04-.03.08-.05.14-.05h.39c.06,0,.1.01.14.03.04.02.07.06.1.1l.69,1.18s.05.05.07.05.05-.02.07-.05l.7-1.18s.06-.08.09-.1c.04-.02.08-.03.14-.03h.38c.06,0,.11.02.15.05.03.03.05.08.05.15v2.71c0,.06-.02.11-.05.15-.03.03-.08.05-.15.05h-.31c-.06,0-.11-.02-.15-.05-.03-.03-.05-.08-.05-.15v-1.37s0-.05-.02-.07c-.01-.02-.03-.02-.05-.01-.02,0-.04.02-.05.05l-.48.83s-.06.08-.1.1c-.04.02-.08.03-.14.03h-.05c-.06,0-.1-.01-.14-.03-.04-.02-.07-.06-.1-.1l-.5-.84s-.05-.06-.08-.05c-.03,0-.04.04-.04.08v1.37c0,.06-.02.11-.05.14-.03.04-.08.05-.15.05h-.31c-.06,0-.11-.02-.14-.05Z"></path></g><g><g><path class="cls-1" d="M25.69,5.97h2.49v9.44h1.32V5.97h2.49v11.26h-5.4l-.05-.05c-.24-.24-.47-.47-.71-.71-.03-.03-.06-.06-.1-.08-.06-.03-.05-.08-.05-.08V5.97Z"></path><path class="cls-1" d="M32.78,14.28l.9-.87h1.59v2.01h1.32v-1.56l-.02-.02-.13-.13c-.11-.11-.26-.26-.43-.43-.35-.35-.82-.82-1.3-1.3-.48-.45-.95-.93-1.3-1.3-.19-.16-.34-.31-.43-.42-.05-.06-.1-.1-.13-.11-.02-.02-.03-.03-.03-.05-.03-.03-.03-.05-.03-.05v-3.16s.05-.08.05-.08c.03-.03.06-.05.1-.08.08-.08.18-.18.27-.29.21-.18.4-.39.43-.42l.05-.05h5.4v3.44s-.05.08-.05.08c-.03.03-.05.03-.1.08l-.26.26c-.21.21-.4.42-.43.45l-.05.05h-1.61v-2.54h-1.32v2.09l.02.02.13.13c.11.11.26.26.43.43.34.34.82.82,1.3,1.28.48.47.95.95,1.3,1.3.06.06.5.51.56.55.02.02.03.03.03.05.03.03.03.05.03.05v2.63s-.05.08-.05.08l-.35.35c-.21.21-.4.4-.43.43l-.05.05h-5.41v-2.96Z"></path><path class="cls-1" d="M46,6.73s.06.05.1.08c.05.05.05.08.05.08v3.44h-1.59l-.05-.05s-.24-.22-.43-.43c-.1-.11-.19-.21-.27-.26-.03-.05-.06-.06-.1-.1s-.05-.06-.05-.06c-.03-.11-.03-.21-.03-.31.02-.1.03-.18.03-.29v-1.04h-1.32v7.63h1.32v-1.04c0-.11-.02-.19-.03-.29,0-.1,0-.19.03-.29,0-.03.11-.14.14-.16.08-.06.16-.18.27-.27.21-.19.4-.4.43-.43l.05-.05h1.59v3.44s.02.05-.05.08c-.03.02-.06.03-.1.08-.06.08-.16.18-.26.27-.21.21-.4.4-.43.43l-.05.05h-4.51l-.05-.05c-.24-.24-.47-.47-.71-.71-.03-.03-.06-.05-.1-.08-.05-.05-.05-.08-.05-.08V6.89s-.02-.05.05-.08c.08-.03.32-.31.37-.37.21-.18.4-.39.43-.42l.05-.05h4.51l.05.05s.22.24.43.43c.1.1.18.21.26.27Z"></path><path class="cls-1" d="M46.98,5.97h2.49v9.44h1.32V5.97h2.49v11.26h-5.4l-.05-.05c-.24-.24-.47-.47-.71-.71-.03-.03-.06-.06-.1-.08-.06-.03-.05-.08-.05-.08V5.97Z"></path><path class="cls-1" d="M54.26,5.97h2.49v9.44h1.32v-1.04c0-.11-.02-.19-.03-.29,0-.1,0-.19.03-.29.02-.03.05-.06.05-.06.03-.03.06-.05.1-.1.06-.08.18-.16.27-.27.19-.21.4-.4.43-.43l.05-.05h1.59v3.44s-.05.08-.05.08c-.11.11-.24.24-.35.35-.21.21-.4.4-.43.43l-.05.05h-5.41V5.97Z"></path><path class="cls-1" d="M61.09,6.81s.06-.05.1-.08c.08-.08.18-.18.27-.29.21-.18.4-.39.43-.42l.05-.05h4.51l.05.05s.22.23.43.43c.1.1.19.19.26.27.03.05.06.06.1.08.06.03.05.08.05.08v10.34h-2.49v-4.43h-1.32v4.43h-2.49V6.89s.05-.08.05-.08ZM63.53,7.79v3.2h1.32v-3.2h-1.32Z"></path><path class="cls-1" d="M75.4,6.89s.05-.08.05-.08c.03-.03.06-.05.1-.08.08-.08.18-.18.27-.29.21-.18.4-.39.43-.42l.05-.05h4.51l.05.05s.22.23.43.43c.1.1.19.19.26.27.03.05.06.06.1.08.06.03.05.08.05.08v10.34h-2.49v-4.43h-1.32v4.43h-2.49V6.89ZM75.88,5.54v-1.9l.05-.03c.32-.21.72-.31,1.2-.31.51,0,1,.14,1.48.29.48.14.92.26,1.37.26.37,0,.69-.1.96-.24l.27-.14v1.9l-.05.03c-.32.21-.72.31-1.19.31-.27,0-.55-.05-.79-.1-.24-.05-.48-.13-.71-.19-.47-.13-.9-.24-1.35-.24-.39,0-.71.08-.98.22l-.27.14ZM77.89,10.98h1.32v-3.2h-1.32v3.2Z"></path><path class="cls-1" d="M82.63,6.89s.05-.08.05-.08c.03-.03.06-.05.1-.08.08-.08.18-.18.27-.29.21-.18.4-.39.43-.42l.05-.05h4.51l.05.05s.22.23.43.43c.1.1.19.19.26.27.03.05.06.06.1.08.06.03.05.08.05.08v9.43s-.05.08-.05.08c-.11.11-.24.24-.35.35-.21.21-.4.4-.43.43l-.05.05h-4.51l-.05-.05c-.24-.24-.47-.47-.71-.71-.03-.03-.06-.06-.1-.08-.06-.03-.05-.08-.05-.08V6.89ZM86.43,15.42v-7.63h-1.32v7.63h1.32Z"></path><path class="cls-1" d="M24.71,6.81s-.06-.05-.1-.08c-.08-.08-.16-.19-.27-.29-.19-.18-.39-.39-.42-.42l-.05-.05h-8.33l-.9.9s0,0,0,.01v10.34h2.49V7.79h1.32v9.44h2.49V7.79h1.33v9.44h2.49V6.89s.02-.05-.05-.08Z"></path><path class="cls-1" d="M68.27,16.32s0,.03.05.08c.03.03.06.05.1.08.24.24.47.47.71.71l.05.05h2.59c-.1.31-.39.56-.71.56-.22,0-.42-.11-.55-.24l-.14-.13-1.35,1.37.03.05c.12.19.34.36.61.5.09-.09.18-.18.28-.28h2.85c.44-.34.78-.81.95-1.4.03-.18.06-.34.08-.5.02-.03,0-.05,0-.06.03-.03.21-.21.39-.39.1-.1.18-.18.24-.24.03-.03.06-.06.08-.08.05-.05.05-.08.05-.08v-3.44h-1.59l-.05.05s-.22.24-.43.43c-.11.1-.19.21-.27.27-.03.02-.14.13-.14.16-.03.1-.03.19-.03.29.02.1.03.18.03.29v1.04h-1.32v-7.63h1.32v1.04c0,.11-.02.19-.03.29,0,.1,0,.19.03.31,0,0,.02.03.05.06.03.03.06.05.1.1.08.05.18.14.27.26.19.21.4.4.43.43l.05.05h1.59v-3.44s0-.03-.05-.08c-.11-.11-.24-.24-.35-.35-.21-.21-.4-.4-.43-.43l-.05-.05h-4.51l-.05.05s-.22.24-.43.42c-.05.06-.29.34-.37.37-.06.03-.05.08-.05.08v9.43Z"></path></g><g><g><path class="cls-2" d="M12.85,25.73h-3.82V8.29c.73-.73,1.13-1.13,1.86-1.86h.1c.73.73,1.13,1.13,1.86,1.86v17.44Z"></path><path class="cls-2" d="M8.33,23.76h-3.82v-13.5c.73-.73,1.13-1.13,1.86-1.86h.1c.73.73,1.13,1.13,1.86,1.86v13.5Z"></path><path class="cls-2" d="M3.82,21.83H0v-9.64c.73-.73,1.13-1.13,1.86-1.86h.1c.73.73,1.13,1.13,1.86,1.86v9.64Z"></path></g><g><path class="cls-2" d="M90.71,25.73h3.82V8.29c-.73-.73-1.13-1.13-1.86-1.86h-.1c-.73.73-1.13,1.13-1.86,1.86v17.44Z"></path><path class="cls-2" d="M95.23,23.76h3.82v-13.5c-.73-.73-1.13-1.13-1.86-1.86h-.1c-.73.73-1.13,1.13-1.86,1.86v13.5Z"></path><path class="cls-2" d="M99.74,21.83h3.82v-9.64c-.73-.73-1.13-1.13-1.86-1.86h-.1c-.73.73-1.13,1.13-1.86,1.86v9.64Z"></path></g></g><g><path class="cls-1" d="M17.55,21.05s.03.02.04.04c.02.02.02.04.02.04v1.51h-.7l-.02-.02s-.11-.1-.19-.19c-.04-.05-.08-.09-.12-.11-.01-.02-.03-.03-.04-.04-.01-.01-.02-.03-.02-.03-.01-.05-.01-.09-.01-.13,0-.04.01-.08.01-.13v-.46h-.58v1.39h.54v.81h-.54v1.16h.58v-.46s0-.08-.01-.13c0-.04,0-.08.01-.13,0-.01.05-.06.06-.07.04-.03.07-.08.12-.12.09-.08.18-.18.19-.19l.02-.02h.7v1.51s0,.02-.02.04c-.01,0-.03.01-.04.04-.03.04-.07.08-.11.12-.09.09-.18.18-.19.19l-.02.02h-2.38v-4.95h2.38l.02.02s.1.11.19.19c.04.04.08.09.11.12Z"></path><path class="cls-1" d="M20.41,25.67v-4.95h2.38l.02.02s.1.1.19.19c.04.04.09.08.11.12.01.02.03.03.04.04.03.01.02.04.02.04v2.18s-.02.04-.02.04c-.05.05-.11.11-.16.16-.09.09-.18.18-.19.2l-.02.02h-1.29v1.96h-1.09ZM21.51,21.51v1.39h.58v-1.39h-.58Z"></path><path class="cls-1" d="M26.53,21.05s.03.02.04.04c.02.02.02.04.02.04v1.51h-.7l-.02-.02s-.11-.1-.19-.19c-.04-.05-.08-.09-.12-.11-.01-.02-.03-.03-.04-.04-.01-.01-.02-.03-.02-.03-.01-.05-.01-.09-.01-.13,0-.04.01-.08.01-.13v-.46h-.58v1.39h.54v.81h-.54v1.16h.58v-.46s0-.08-.01-.13c0-.04,0-.08.01-.13,0-.01.05-.06.06-.07.04-.03.07-.08.12-.12.09-.08.18-.18.19-.19l.02-.02h.7v1.51s0,.02-.02.04c-.01,0-.03.01-.04.04-.03.04-.07.08-.11.12-.09.09-.18.18-.19.19l-.02.02h-2.38v-4.95h2.38l.02.02s.1.11.19.19c.04.04.08.09.11.12Z"></path><path class="cls-1" d="M27.32,25.67v-4.95h2.38l.02.02s.1.1.19.19c.04.04.09.08.11.12.01.02.03.03.04.04.03.01.02.04.02.04v1.83s-.02.04-.02.04c-.05.05-.11.11-.16.16-.07.07-.14.13-.18.16l.18.18s.09.08.11.12c.01.02.03.03.04.04.03.01.02.04.02.04v2h-1.09v-1.96h-.58v1.96h-1.09ZM28.42,22.91h.58v-1.39h-.58v1.39Z"></path><path class="cls-1" d="M31.95,20.72v4.95h-1.09v-4.95h1.09Z"></path><path class="cls-1" d="M32.72,21.12s.02-.04.02-.04c.01-.01.03-.02.04-.04.04-.04.08-.08.12-.13.09-.08.18-.17.19-.18l.02-.02h1.99l.02.02s.1.1.19.19c.04.04.08.08.11.12.01.02.03.03.04.04.03.01.02.04.02.04v4.15s-.02.04-.02.04c-.05.05-.11.11-.16.16-.09.09-.18.18-.19.19l-.02.02h-1.99l-.02-.02c-.11-.11-.2-.2-.31-.31-.01-.01-.03-.03-.04-.04-.03-.01-.02-.04-.02-.04v-4.15ZM34.39,24.87v-3.36h-.58v3.36h.58Z"></path><path class="cls-1" d="M36.26,25.67v-4.95h2.38l.02.02s.1.1.19.19c.04.04.09.08.11.12.01.02.03.03.04.04.03.01.02.04.02.04v4.15s-.02.04-.02.04c-.05.05-.11.11-.16.16-.09.09-.18.18-.19.19l-.02.02h-2.38ZM37.35,24.87h.58v-3.36h-.58v3.36Z"></path><path class="cls-1" d="M40.89,20.72v4.95h-1.09v-4.95h1.09Z"></path><path class="cls-1" d="M43.99,20.72l.02.02s.1.1.19.19c.04.04.08.08.11.12.01.02.03.03.04.04.03.01.02.04.02.04v1.39s-.01.02-.01.02c0,0,0,.01-.01.02-.01,0-.03.03-.06.05-.05.04-.11.11-.19.18-.15.16-.36.37-.57.57-.25.25-.51.51-.76.76l-.06.06v.69h.58v-.49s0-.01.02-.03c.01-.01.03-.02.04-.04l.12-.12c.09-.08.18-.17.19-.18l.02-.02h.7v1.68h-2.37l-.02-.02c-.11-.11-.2-.2-.31-.31-.01-.01-.03-.03-.04-.04-.03-.01-.02-.04-.02-.04v-1.16s.01-.02.01-.02c0,0,0-.01.01-.02.01,0,.03-.03.06-.05.05-.04.11-.11.19-.19.16-.15.36-.37.57-.57s.42-.42.57-.56c.08-.08.14-.14.19-.19l.06-.06v-.92h-.58v.46s0,.08.01.13c0,.04,0,.08-.01.13,0,.01-.02.03-.02.03-.01.01-.03.02-.04.04-.04.02-.08.06-.12.11-.08.09-.18.18-.19.19l-.02.02h-.7v-1.91h2.38Z"></path><path class="cls-1" d="M45.11,21.08s.03-.02.04-.04c.04-.04.08-.08.12-.13.09-.08.18-.17.19-.18l.02-.02h1.98l.02.02s.1.1.19.19c.04.04.09.08.11.12.01.02.03.03.04.04.03.01.02.04.02.04v4.55h-1.09v-1.95h-.58v1.95h-1.09v-4.55s.02-.04.02-.04ZM46.19,21.51v1.41h.58v-1.41h-.58Z"></path><path class="cls-1" d="M50.69,22.63l-.02-.02s-.11-.1-.19-.19c-.04-.05-.09-.09-.12-.11-.01-.02-.03-.03-.04-.04-.01-.01-.02-.03-.02-.03-.01-.05-.01-.09-.01-.13,0-.04.01-.08.01-.13v-.46h-.58v3.36h.58v-.46s0-.08-.01-.13c0-.04,0-.08.01-.13,0-.01.05-.06.06-.07.04-.03.07-.08.12-.12.09-.08.18-.18.19-.19l.02-.02h.7v1.51s0,.01-.02.04c0,0-.02.02-.04.04-.03.03-.06.06-.11.11-.08.08-.16.16-.17.17,0,0,0,.01,0,.03,0,.07-.02.14-.04.22-.16.54-.64.87-1.19.87-.41,0-.75-.16-.88-.35v-.02s.58-.6.58-.6l.06.06c.06.06.14.11.24.11.14,0,.27-.11.31-.25h-1.14l-.02-.02c-.11-.11-.2-.2-.31-.31-.01-.01-.03-.02-.04-.04-.02-.02-.02-.04-.02-.04v-4.15s0-.02.02-.04c.04-.01.14-.13.16-.16.09-.08.18-.17.19-.18l.02-.02h1.99l.02.02s.1.1.19.19c.05.05.11.11.16.16.02.02.02.04.02.04v1.51h-.7Z"></path><path class="cls-1" d="M52.11,21.12s.02-.04.02-.04c.01-.01.03-.02.04-.04.04-.04.08-.08.12-.13.09-.08.18-.17.19-.18l.02-.02h1.98l.02.02s.1.1.19.19c.04.04.09.08.11.12.01.02.03.03.04.04.03.01.02.04.02.04v4.55h-1.09v-1.95h-.58v1.95h-1.09v-4.55ZM52.33,20.53v-.83h.02c.14-.11.32-.15.53-.15.23,0,.44.06.65.13s.4.11.6.11c.16,0,.3-.04.42-.11l.12-.06v.83h-.02c-.14.11-.32.15-.52.15-.12,0-.24-.02-.35-.04-.11-.02-.21-.06-.31-.08-.2-.06-.4-.11-.59-.11-.17,0-.31.04-.43.1l-.12.06ZM53.21,22.92h.58v-1.41h-.58v1.41Z"></path><path class="cls-1" d="M55.65,21.12s.02-.04.02-.04c.01-.01.03-.02.04-.04.04-.04.08-.08.12-.13.09-.08.18-.17.19-.18l.02-.02h1.99l.02.02s.1.1.19.19c.04.04.08.08.11.12.01.02.03.03.04.04.03.01.02.04.02.04v4.15s-.02.04-.02.04c-.05.05-.11.11-.16.16-.09.09-.18.18-.19.19l-.02.02h-1.99l-.02-.02c-.11-.11-.2-.2-.31-.31-.01-.01-.03-.03-.04-.04-.03-.01-.02-.04-.02-.04v-4.15ZM57.32,24.87v-3.36h-.58v3.36h.58Z"></path><path class="cls-1" d="M61.27,21.08s.03-.02.04-.04c.04-.04.08-.08.12-.13.09-.08.18-.17.19-.18l.02-.02h1.98l.02.02s.1.1.19.19c.04.04.09.08.11.12.01.02.03.03.04.04.03.01.02.04.02.04v4.55h-1.09v-1.95h-.58v1.95h-1.09v-4.55s.02-.04.02-.04ZM62.34,21.51v1.41h.58v-1.41h-.58Z"></path><path class="cls-1" d="M65.85,24.55s.03.02.04.04c.1.08.21.18.29.28h.25v-4.15h1.09v4.95h-1.72l-.02-.02s-.29-.28-.54-.52c-.11-.13-.23-.25-.32-.34-.05-.04-.09-.08-.14-.13-.02-.01-.02-.03-.02-.03v-3.91h1.09v3.84Z"></path><path class="cls-1" d="M68.32,21.08s.03-.02.04-.04c.04-.04.08-.08.12-.13.09-.08.18-.17.19-.18l.02-.02h1.98l.02.02s.1.1.19.19c.04.04.09.08.11.12.01.02.03.03.04.04.03.01.02.04.02.04v4.55h-1.09v-1.95h-.58v1.95h-1.09v-4.55s.02-.04.02-.04ZM69.39,21.51v1.41h.58v-1.41h-.58Z"></path><path class="cls-1" d="M71.84,25.67v-4.95h2.38l.02.02s.1.1.19.19c.04.04.09.08.11.12.01.02.03.03.04.04.03.01.02.04.02.04v4.55h-1.09v-4.15h-.58v4.15h-1.09Z"></path><path class="cls-1" d="M77.45,22.63l-.02-.02s-.11-.1-.19-.19c-.04-.05-.09-.09-.12-.11-.01-.02-.03-.03-.04-.04-.01-.01-.02-.03-.02-.03-.01-.05-.01-.09-.01-.13,0-.04.01-.08.01-.13v-.46h-.58v3.36h.58v-.46s0-.08-.01-.13c0-.04,0-.08.01-.13,0-.01.05-.06.06-.07.04-.03.07-.08.12-.12.09-.08.18-.18.19-.19l.02-.02h.7v1.51s0,.01-.02.04c0,0-.02.02-.04.04-.03.03-.06.06-.11.11-.08.08-.16.16-.17.17,0,0,0,.01,0,.03,0,.07-.02.14-.04.22-.16.54-.64.87-1.19.87-.41,0-.75-.16-.88-.35v-.02s.58-.6.58-.6l.06.06c.06.06.14.11.24.11.14,0,.27-.11.31-.25h-1.14l-.02-.02c-.11-.11-.2-.2-.31-.31-.01-.01-.03-.02-.04-.04-.02-.02-.02-.04-.02-.04v-4.15s0-.02.02-.04c.04-.01.14-.13.16-.16.09-.08.18-.17.19-.18l.02-.02h1.99l.02.02s.1.1.19.19c.05.05.11.11.16.16.02.02.02.04.02.04v1.51h-.7Z"></path><path class="cls-1" d="M78.89,21.08s.03-.02.04-.04c.04-.04.08-.08.12-.13.09-.08.18-.17.19-.18l.02-.02h1.98l.02.02s.1.1.19.19c.04.04.09.08.11.12.01.02.03.03.04.04.03.01.02.04.02.04v4.55h-1.09v-1.95h-.58v1.95h-1.09v-4.55s.02-.04.02-.04ZM79.96,21.51v1.41h.58v-1.41h-.58Z"></path><path class="cls-1" d="M82.41,25.67v-4.95h2.38l.02.02s.1.1.19.19c.04.04.09.08.11.12.01.02.03.03.04.04.03.01.02.04.02.04v4.15s-.02.04-.02.04c-.05.05-.11.11-.16.16-.09.09-.18.18-.19.19l-.02.02h-2.38ZM83.51,24.87h.58v-3.36h-.58v3.36Z"></path><path class="cls-1" d="M85.96,21.08s.03-.02.04-.04c.04-.04.08-.08.12-.13.09-.08.18-.17.19-.18l.02-.02h1.98l.02.02s.1.1.19.19c.04.04.09.08.11.12.01.02.03.03.04.04.03.01.02.04.02.04v4.55h-1.09v-1.95h-.58v1.95h-1.09v-4.55s.02-.04.02-.04ZM87.04,21.51v1.41h.58v-1.41h-.58Z"></path></g></g></g></g></svg>