<?xml version="1.0" encoding="UTF-8"?>
<svg xmlns="http://www.w3.org/2000/svg" version="1.1" viewBox="0 0 765.5 148.8">
  <defs>
    <style>
      .cls-1 {
        mix-blend-mode: soft-light;
      }

      .cls-1, .cls-2 {
        isolation: isolate;
      }

      .cls-1, .cls-3 {
        fill: #0cf;
      }

      .cls-4 {
        fill: #fff;
      }
    </style>
  </defs>
  <!-- Generator: Adobe Illustrator 28.6.0, SVG Export Plug-In . SVG Version: 1.2.0 Build 709)  -->
  <g class="cls-2">
    <g id="Camada_1">
      <rect class="cls-3" x="233.8" y="107.3" width="530" height="32.6"/>
      <g>
        <g>
          <path class="cls-3" d="M69.7,128.4l4.6-10.3c8-18.1-6.1-39.2-26-38.9L0,82.8l45.7,6.3c12.2,2.3,21.6,12.8,22.8,25.2l1.3,14.2h0Z"/>
          <path class="cls-3" d="M56.5,119.9c-5.1,4.1-12.7,3-17-2.4-4.2-5.3-3.5-13,1.7-17,5.1-4.1,12.7-3,17,2.4,4.2,5.3,3.5,13-1.7,17Z"/>
          <path class="cls-1" d="M69.7,128.4l4.6-10.3c8-18.1-6.1-39.2-26-38.9L0,82.8l47.7,2.1c17,1.7,28.8,18.7,24.3,35.1l-2.3,8.5Z"/>
          <path class="cls-1" d="M69.7,128.4l4.6-10.3c8-18.1-6.1-39.2-26-38.9L0,82.8l47.7,2.1c17,1.7,28.8,18.7,24.3,35.1l-2.3,8.5Z"/>
        </g>
        <g>
          <path class="cls-3" d="M20.4,69.7l10.3,4.6c18.1,8,39.2-6.1,38.9-26L66,0l-6.3,45.7c-2.3,12.2-12.8,21.6-25.2,22.8l-14.2,1.3h0Z"/>
          <path class="cls-3" d="M28.8,56.5c-4.1-5.1-3-12.7,2.4-17,5.4-4.2,13-3.5,17,1.7,4,5.1,3,12.7-2.4,17-5.3,4.2-13,3.5-17-1.7Z"/>
          <path class="cls-1" d="M20.4,69.7l10.3,4.6c18.1,8,39.2-6.1,38.9-26L66,0l-2.1,47.7c-1.7,17-18.7,28.8-35.1,24.3l-8.5-2.3Z"/>
          <path class="cls-1" d="M20.4,69.7l10.3,4.6c18.1,8,39.2-6.1,38.9-26L66,0l-2.1,47.7c-1.7,17-18.7,28.8-35.1,24.3l-8.5-2.3Z"/>
        </g>
        <g>
          <path class="cls-3" d="M79.1,20.4l-4.6,10.3c-8,18.1,6.1,39.2,26,38.9l48.2-3.6-45.7-6.3c-12.2-2.3-21.7-12.8-22.8-25.2l-1.3-14.2h0Z"/>
          <path class="cls-3" d="M92.3,28.8c5.1-4.1,12.7-3,17,2.4,4.2,5.4,3.5,13-1.7,17-5.1,4-12.7,3-17-2.4-4.2-5.3-3.5-13,1.7-17Z"/>
          <path class="cls-1" d="M79.1,20.4l-4.6,10.3c-8,18.1,6.1,39.2,26,38.9l48.2-3.6-47.7-2.1c-17-1.7-28.8-18.7-24.3-35.1l2.3-8.5h0Z"/>
          <path class="cls-1" d="M79.1,20.4l-4.6,10.3c-8,18.1,6.1,39.2,26,38.9l48.2-3.6-47.7-2.1c-17-1.7-28.8-18.7-24.3-35.1l2.3-8.5h0Z"/>
        </g>
        <g>
          <path class="cls-3" d="M128.4,79.1l-10.3-4.6c-18.1-8-39.2,6.1-38.9,26l3.6,48.2,6.3-45.7c2.3-12.2,12.8-21.7,25.2-22.8l14.2-1.3h0Z"/>
          <path class="cls-3" d="M119.9,92.3c4.1,5.1,3,12.7-2.4,17-5.3,4.2-13,3.5-17-1.7-4.1-5.1-3-12.7,2.4-17,5.3-4.2,13-3.5,17,1.7Z"/>
          <path class="cls-1" d="M128.4,79.1l-10.3-4.6c-18.1-8-39.2,6.1-38.9,26l3.6,48.2,2.1-47.7c1.7-17,18.7-28.8,35.1-24.3l8.5,2.3h0Z"/>
          <path class="cls-1" d="M128.4,79.1l-10.3-4.6c-18.1-8-39.2,6.1-38.9,26l3.6,48.2,2.1-47.7c1.7-17,18.7-28.8,35.1-24.3l8.5,2.3h0Z"/>
        </g>
      </g>
      <g class="cls-2">
        <g class="cls-2">
          <path class="cls-3" d="M186.9,23.3h-14.9v6.8h14.6v10.3h-14.6v14.3h-10.6V13h25.6v10.3Z"/>
        </g>
        <g class="cls-2">
          <path class="cls-3" d="M200.7,20.8c-1.1,1.1-2.5,1.7-4,1.7s-2.9-.6-4-1.7c-1.1-1.1-1.7-2.5-1.7-4s.6-2.9,1.7-4c1.1-1.1,2.5-1.7,4-1.7s2.9.6,4,1.7,1.7,2.4,1.7,4-.6,2.9-1.7,4ZM191.7,54.6v-29.7h9.9v29.7h-9.9Z"/>
          <path class="cls-3" d="M216.6,33.5c0,.5.5.9,1.6,1.3,1,.3,2.2.7,3.6,1.2,1.4.4,2.8.9,4.3,1.4,1.5.5,2.7,1.4,3.8,2.9s1.5,3.2,1.5,5.4c0,3.4-1.3,5.9-3.8,7.5-2.6,1.6-5.6,2.4-9.1,2.4-6.7,0-11.1-2.4-13.3-7.1l8.6-4.3c.8,2.2,2.3,3.3,4.6,3.3s2.7-.5,2.7-1.6-.5-1-1.5-1.3c-1-.3-2.2-.8-3.6-1.2-1.4-.5-2.8-1-4.2-1.5-1.5-.5-2.7-1.4-3.7-2.7-1-1.3-1.5-3-1.5-4.9,0-3.2,1.2-5.6,3.5-7.4,2.4-1.7,5.2-2.6,8.5-2.6,5.9,0,9.9,2.3,12.2,6.9l-8.3,3.7c-.9-1.7-2.1-2.6-3.7-2.6s-2.2.4-2.2,1.3Z"/>
        </g>
        <g class="cls-2">
          <path class="cls-3" d="M244.1,20.8c-1.1,1.1-2.5,1.7-4,1.7s-2.9-.6-4-1.7c-1.1-1.1-1.7-2.5-1.7-4s.6-2.9,1.7-4c1.1-1.1,2.5-1.7,4-1.7s2.9.6,4,1.7,1.7,2.4,1.7,4-.6,2.9-1.7,4ZM235.2,54.6v-29.7h9.9v29.7h-9.9Z"/>
        </g>
        <g class="cls-2">
          <path class="cls-3" d="M265.1,55.5c-4.4,0-8.1-1.5-11.2-4.5s-4.6-6.7-4.6-11.1,1.5-8.1,4.6-11.1c3.1-3,6.8-4.5,11.2-4.5s8.2,1.5,11.3,4.5c3.1,3,4.6,6.7,4.6,11.1s-1.5,8.1-4.6,11.1c-3.1,3-6.8,4.5-11.3,4.5ZM265.1,46c1.7,0,3.2-.6,4.3-1.7,1.1-1.1,1.7-2.6,1.7-4.5s-.6-3.3-1.7-4.5c-1.1-1.1-2.6-1.7-4.3-1.7s-3.1.6-4.3,1.7c-1.1,1.2-1.7,2.6-1.7,4.5s.6,3.3,1.7,4.5,2.5,1.7,4.3,1.7Z"/>
        </g>
        <g class="cls-2">
          <path class="cls-3" d="M285.3,54.6V11.2h9.9v43.4h-9.9Z"/>
        </g>
        <g class="cls-2">
          <path class="cls-3" d="M315.3,55.5c-4.4,0-8.1-1.5-11.2-4.5s-4.6-6.7-4.6-11.1,1.5-8.1,4.6-11.1c3.1-3,6.8-4.5,11.2-4.5s8.2,1.5,11.3,4.5c3.1,3,4.6,6.7,4.6,11.1s-1.5,8.1-4.6,11.1c-3.1,3-6.8,4.5-11.3,4.5ZM315.3,46c1.7,0,3.2-.6,4.3-1.7,1.1-1.1,1.7-2.6,1.7-4.5s-.6-3.3-1.7-4.5c-1.1-1.1-2.6-1.7-4.3-1.7s-3.1.6-4.3,1.7c-1.1,1.2-1.7,2.6-1.7,4.5s.6,3.3,1.7,4.5,2.5,1.7,4.3,1.7Z"/>
          <path class="cls-3" d="M356.8,24.9h9.8v28.5c0,2.4-.4,4.5-1.3,6.3s-2.1,3.3-3.6,4.4c-1.5,1.1-3.2,1.9-5,2.4-1.8.5-3.7.8-5.7.8-3.3,0-6.2-.6-8.8-1.8-2.6-1.2-4.5-3-5.8-5.4l8.2-4.8c1.4,2.3,3.5,3.4,6.3,3.4s3.2-.5,4.3-1.4c1.1-.9,1.7-2.2,1.7-4v-2.9c-2,2.5-4.8,3.7-8.3,3.7s-7.5-1.5-10.1-4.4c-2.7-2.9-4-6.5-4-10.7s1.3-7.8,4-10.7c2.7-2.9,6.1-4.4,10.1-4.4s6.3,1.2,8.3,3.7v-2.9ZM345.9,43.6c1.2,1.2,2.7,1.8,4.5,1.8s3.4-.6,4.5-1.8c1.2-1.2,1.8-2.6,1.8-4.4s-.6-3.3-1.8-4.4c-1.2-1.2-2.7-1.8-4.5-1.8s-3.4.6-4.5,1.8c-1.2,1.2-1.8,2.6-1.8,4.4s.6,3.3,1.8,4.4Z"/>
        </g>
        <g class="cls-2">
          <path class="cls-3" d="M381.2,20.8c-1.1,1.1-2.5,1.7-4,1.7s-2.9-.6-4-1.7c-1.1-1.1-1.7-2.5-1.7-4s.6-2.9,1.7-4c1.1-1.1,2.5-1.7,4-1.7s2.9.6,4,1.7,1.7,2.4,1.7,4-.6,2.9-1.7,4ZM372.3,54.6v-29.7h9.9v29.7h-9.9Z"/>
        </g>
        <g class="cls-2">
          <path class="cls-3" d="M408.7,24.9h9.9v29.7h-9.9v-2.7c-2,2.4-4.8,3.6-8.4,3.6s-7.3-1.5-10-4.5c-2.7-3-4-6.7-4-11.2s1.3-8.2,4-11.2,6-4.5,10-4.5,6.4,1.2,8.4,3.6v-2.7ZM398,44.5c1.1,1.2,2.7,1.8,4.5,1.8s3.4-.6,4.5-1.8c1.1-1.2,1.7-2.8,1.7-4.7s-.6-3.5-1.7-4.7c-1.2-1.2-2.7-1.8-4.5-1.8s-3.4.6-4.5,1.8c-1.2,1.2-1.7,2.8-1.7,4.7s.6,3.5,1.7,4.7Z"/>
        </g>
        <g class="cls-2">
          <path class="cls-3" d="M458.8,13h9.9v41.6h-9.9v-2.7c-2,2.4-4.8,3.6-8.4,3.6s-7.3-1.5-10-4.5c-2.7-3-4-6.7-4-11.2s1.3-8.2,4-11.2c2.7-3,6-4.5,10-4.5s6.4,1.2,8.4,3.6v-14.6ZM448,44.5c1.1,1.2,2.7,1.8,4.5,1.8s3.4-.6,4.5-1.8c1.1-1.2,1.7-2.8,1.7-4.7s-.6-3.5-1.7-4.7c-1.1-1.2-2.7-1.8-4.5-1.8s-3.4.6-4.5,1.8c-1.1,1.2-1.7,2.8-1.7,4.7s.6,3.5,1.7,4.7Z"/>
        </g>
        <g class="cls-2">
          <path class="cls-3" d="M488.8,55.5c-4.4,0-8.1-1.5-11.2-4.5-3.1-3-4.6-6.7-4.6-11.1s1.5-8.1,4.6-11.1c3.1-3,6.8-4.5,11.2-4.5s8.2,1.5,11.3,4.5c3.1,3,4.6,6.7,4.6,11.1s-1.5,8.1-4.6,11.1c-3.1,3-6.8,4.5-11.3,4.5ZM488.8,46c1.7,0,3.2-.6,4.3-1.7,1.1-1.1,1.7-2.6,1.7-4.5s-.6-3.3-1.7-4.5c-1.1-1.1-2.6-1.7-4.3-1.7s-3.1.6-4.2,1.7c-1.1,1.2-1.7,2.6-1.7,4.5s.6,3.3,1.7,4.5c1.1,1.1,2.5,1.7,4.2,1.7Z"/>
          <path class="cls-3" d="M533.5,44.6h16.1v10h-26.8V13h26.5v9.9h-15.8v5.8h14.3v9.8h-14.3v6.1Z"/>
        </g>
        <g class="cls-2">
          <path class="cls-3" d="M584.1,54.6h-11.1l-5.2-7.4-5.2,7.4h-11.1l10.8-15.2-10.4-14.6h11.1l4.8,6.8,4.8-6.8h11.1l-10.4,14.6,10.8,15.2Z"/>
        </g>
        <g class="cls-2">
          <path class="cls-3" d="M593.6,43.4c1,2.4,3.2,3.6,6.7,3.6s3.9-.7,5.4-2.1l7.1,5c-2.9,3.7-7.2,5.5-12.8,5.5s-9.1-1.5-12.1-4.4c-3-3-4.5-6.7-4.5-11.2s1.5-8.2,4.5-11.2c3-3,6.8-4.5,11.4-4.5s8.1,1.5,11,4.5c2.9,3,4.3,6.7,4.3,11.2s-.1,2.5-.4,3.7h-20.5ZM593.5,36.6h11.4c-.8-2.8-2.7-4.2-5.6-4.2s-5,1.4-5.8,4.2Z"/>
        </g>
        <g class="cls-2">
          <path class="cls-3" d="M628.6,30.4c.6-1.9,1.7-3.4,3.3-4.5,1.7-1.1,3.5-1.6,5.6-1.6v10.9c-2.3-.4-4.3,0-6.2,1.2-1.8,1.2-2.8,3.1-2.8,5.8v12.3h-9.9v-29.7h9.9v5.5Z"/>
        </g>
        <g class="cls-2">
          <path class="cls-3" d="M654.9,55.5c-4.5,0-8.3-1.5-11.3-4.5-3-3-4.5-6.7-4.5-11.2s1.5-8.2,4.5-11.2,6.8-4.5,11.3-4.5,5.6.7,8,2.1c2.4,1.4,4.3,3.2,5.6,5.6l-8.4,4.9c-1.1-1.9-2.8-2.9-5.2-2.9s-3.1.6-4.2,1.7c-1.1,1.1-1.7,2.6-1.7,4.4s.6,3.2,1.7,4.4c1.1,1.1,2.5,1.7,4.2,1.7,2.5,0,4.2-1,5.2-3l8.4,4.9c-1.3,2.4-3.2,4.3-5.6,5.6-2.4,1.4-5.1,2.1-8,2.1Z"/>
        </g>
        <g class="cls-2">
          <path class="cls-3" d="M674,13h11.2l-4.2,8.9h-9.4l2.4-8.9ZM681.5,54.6v-29.7h-9.9v29.7h9.9Z"/>
        </g>
        <g class="cls-2">
          <path class="cls-3" d="M701.5,55.5c-4.5,0-8.3-1.5-11.3-4.5s-4.5-6.7-4.5-11.2,1.5-8.2,4.5-11.2c3-3,6.8-4.5,11.3-4.5s5.6.7,8,2.1c2.4,1.4,4.3,3.2,5.6,5.6l-8.4,4.9c-1.1-1.9-2.8-2.9-5.2-2.9s-3.1.6-4.2,1.7c-1.1,1.1-1.7,2.6-1.7,4.4s.6,3.2,1.7,4.4c1.1,1.1,2.5,1.7,4.2,1.7,2.5,0,4.2-1,5.2-3l8.4,4.9c-1.3,2.4-3.2,4.3-5.6,5.6-2.4,1.4-5.1,2.1-8,2.1Z"/>
        </g>
        <g class="cls-2">
          <path class="cls-3" d="M727.2,20.8c-1.1,1.1-2.5,1.7-4,1.7s-2.9-.6-4-1.7c-1.1-1.1-1.7-2.5-1.7-4s.6-2.9,1.7-4c1.1-1.1,2.5-1.7,4-1.7s2.9.6,4,1.7c1.1,1.1,1.7,2.4,1.7,4s-.6,2.9-1.7,4ZM718.2,54.6v-29.7h9.9v29.7h-9.9Z"/>
        </g>
        <g class="cls-2">
          <path class="cls-3" d="M748.2,55.5c-4.4,0-8.1-1.5-11.2-4.5-3.1-3-4.6-6.7-4.6-11.1s1.5-8.1,4.6-11.1c3.1-3,6.8-4.5,11.2-4.5s8.2,1.5,11.3,4.5c3.1,3,4.6,6.7,4.6,11.1s-1.5,8.1-4.6,11.1c-3.1,3-6.8,4.5-11.3,4.5ZM748.2,46c1.7,0,3.2-.6,4.3-1.7s1.7-2.6,1.7-4.5-.6-3.3-1.7-4.5c-1.1-1.1-2.6-1.7-4.3-1.7s-3.1.6-4.2,1.7c-1.1,1.2-1.7,2.6-1.7,4.5s.6,3.3,1.7,4.5c1.1,1.1,2.5,1.7,4.2,1.7Z"/>
        </g>
      </g>
      <g>
        <path class="cls-4" d="M175.1,95.4l-1.8-5h-10l-1.8,5h-3.1l8.3-22.2h3.3l8.3,22.2h-3.2ZM164.3,87.7h8l-4-11-4,11h0Z"/>
        <path class="cls-4" d="M189.3,79.2c2.2,0,4.1.8,5.7,2.4,1.6,1.6,2.4,3.6,2.4,5.9s-.8,4.3-2.4,5.9c-1.6,1.6-3.5,2.4-5.7,2.4s-4.6-1.1-6-3.1v9.1h-2.8v-22.2h2.8v2.7c1.4-2.1,3.4-3.1,6-3.1ZM189,93.2c1.6,0,2.9-.5,4-1.6,1.1-1.1,1.6-2.4,1.6-4.1s-.5-3-1.6-4.1c-1.1-1.1-2.4-1.6-4-1.6s-2.9.6-4,1.6-1.6,2.4-1.6,4.1.5,3,1.6,4.1c1.1,1.1,2.4,1.6,4,1.6Z"/>
        <path class="cls-4" d="M200.7,95.4v-23.2h2.8v23.2h-2.8Z"/>
        <path class="cls-4" d="M209.1,76.7c-.5,0-1-.2-1.3-.5s-.5-.8-.5-1.3.2-.9.5-1.3.8-.6,1.3-.6.9.2,1.3.6c.4.4.5.8.5,1.3s-.2.9-.5,1.3-.8.5-1.3.5ZM207.7,95.4v-15.9h2.8v15.9h-2.8Z"/>
        <path class="cls-4" d="M222.1,95.9c-2.4,0-4.4-.8-6-2.4s-2.4-3.6-2.4-5.9.8-4.3,2.4-5.9c1.6-1.6,3.6-2.4,6-2.4s3,.4,4.2,1.1,2.2,1.8,2.8,3l-2.3,1.3c-.4-.8-1-1.5-1.9-2s-1.8-.8-2.8-.8c-1.6,0-2.9.5-4,1.6s-1.6,2.4-1.6,4,.5,2.9,1.6,4c1.1,1.1,2.4,1.6,4,1.6s2-.2,2.9-.8,1.5-1.2,1.9-2l2.4,1.4c-.7,1.2-1.6,2.2-2.9,3s-2.7,1.1-4.2,1.1Z"/>
        <path class="cls-4" d="M244.9,79.6h2.8v15.9h-2.8v-2.7c-1.4,2.1-3.4,3.1-6,3.1s-4.1-.8-5.7-2.4c-1.6-1.6-2.4-3.6-2.4-5.9s.8-4.3,2.4-5.9c1.6-1.6,3.5-2.4,5.7-2.4s4.6,1.1,6,3.1c0,0,0-2.7,0-2.7ZM239.3,93.2c1.6,0,2.9-.5,4-1.6,1.1-1.1,1.6-2.4,1.6-4.1s-.5-3-1.6-4.1c-1.1-1.1-2.4-1.6-4-1.6s-2.9.6-4,1.6-1.6,2.4-1.6,4.1.5,3,1.6,4.1c1.1,1.1,2.4,1.6,4,1.6Z"/>
        <path class="cls-4" d="M265,73.2h2.8v22.2h-2.8v-2.7c-1.4,2.1-3.4,3.1-6,3.1s-4.1-.8-5.7-2.4c-1.6-1.6-2.4-3.6-2.4-5.9s.8-4.3,2.4-5.9c1.6-1.6,3.5-2.4,5.7-2.4s4.6,1.1,6,3.1c0,0,0-9.1,0-9.1ZM259.4,93.2c1.6,0,3-.5,4-1.6,1.1-1.1,1.6-2.4,1.6-4.1s-.5-3-1.6-4.1c-1.1-1.1-2.4-1.6-4-1.6s-2.9.6-4,1.6c-1.1,1.1-1.6,2.4-1.6,4.1s.5,3,1.6,4.1c1.1,1.1,2.4,1.6,4,1.6Z"/>
        <path class="cls-4" d="M285.1,79.6h2.8v15.9h-2.8v-2.7c-1.4,2.1-3.4,3.1-6,3.1s-4.1-.8-5.7-2.4c-1.6-1.6-2.4-3.6-2.4-5.9s.8-4.3,2.4-5.9c1.6-1.6,3.5-2.4,5.7-2.4s4.6,1.1,6,3.1c0,0,0-2.7,0-2.7ZM279.5,93.2c1.6,0,3-.5,4-1.6,1.1-1.1,1.6-2.4,1.6-4.1s-.5-3-1.6-4.1c-1.1-1.1-2.4-1.6-4-1.6s-2.9.6-4,1.6-1.6,2.4-1.6,4.1.5,3,1.6,4.1c1.1,1.1,2.4,1.6,4,1.6Z"/>
        <path class="cls-4" d="M313.1,79.6h2.8v15.9h-2.8v-2.7c-1.4,2.1-3.4,3.1-6,3.1s-4.1-.8-5.7-2.4c-1.6-1.6-2.4-3.6-2.4-5.9s.8-4.3,2.4-5.9c1.6-1.6,3.5-2.4,5.7-2.4s4.6,1.1,6,3.1c0,0,0-2.7,0-2.7ZM307.5,93.2c1.6,0,3-.5,4-1.6,1.1-1.1,1.6-2.4,1.6-4.1s-.5-3-1.6-4.1c-1.1-1.1-2.4-1.6-4-1.6s-2.9.6-4,1.6-1.6,2.4-1.6,4.1.5,3,1.6,4.1c1.1,1.1,2.4,1.6,4,1.6ZM309.8,77.4h-2.7l-3.2-4.2h3.3l2.5,4.2h0Z"/>
        <path class="cls-4" d="M341.5,95.4l-5-8.5h-5.2v8.5h-3v-22.2h8.9c1.9,0,3.5.7,4.9,2,1.4,1.3,2,3,2,4.9s-.4,2.8-1.3,3.9c-.9,1.2-2,2-3.3,2.5l5.2,8.9h-3.3,0ZM331.3,76v8.3h5.9c1.1,0,2-.4,2.8-1.2s1.2-1.8,1.2-2.9-.4-2.1-1.2-2.9c-.8-.8-1.7-1.2-2.8-1.2h-5.9Z"/>
        <path class="cls-4" d="M348.6,88.8c.3,1.4.9,2.5,2,3.3,1,.8,2.3,1.2,3.8,1.2s3.6-.8,4.6-2.3l2.4,1.3c-1.5,2.4-3.9,3.6-7,3.6s-4.6-.8-6.1-2.4-2.4-3.6-2.4-6,.8-4.4,2.3-6c1.5-1.6,3.5-2.4,6-2.4s4.2.8,5.7,2.5,2.2,3.6,2.2,5.9,0,.8-.1,1.2h-13.3,0ZM354.1,81.8c-1.5,0-2.7.4-3.7,1.2-1,.8-1.6,1.9-1.8,3.3h10.6c-.2-1.5-.8-2.7-1.8-3.4s-2.1-1.2-3.3-1.2h0Z"/>
        <path class="cls-4" d="M378.3,79.6h2.8v15.9h-2.8v-2.7c-1.4,2.1-3.4,3.1-6,3.1s-4.1-.8-5.7-2.4c-1.6-1.6-2.4-3.6-2.4-5.9s.8-4.3,2.4-5.9c1.6-1.6,3.5-2.4,5.7-2.4s4.6,1.1,6,3.1c0,0,0-2.7,0-2.7ZM372.6,93.2c1.6,0,3-.5,4-1.6,1.1-1.1,1.6-2.4,1.6-4.1s-.5-3-1.6-4.1c-1.1-1.1-2.4-1.6-4-1.6s-2.9.6-4,1.6-1.6,2.4-1.6,4.1.5,3,1.6,4.1c1.1,1.1,2.4,1.6,4,1.6Z"/>
        <path class="cls-4" d="M394,79.2c2.2,0,4.1.8,5.7,2.4,1.6,1.6,2.4,3.6,2.4,5.9s-.8,4.3-2.4,5.9c-1.6,1.6-3.5,2.4-5.7,2.4s-4.6-1.1-6-3.1v2.7h-2.8v-22.2h2.8v9.1c1.4-2.1,3.4-3.1,6-3.1ZM393.6,93.2c1.6,0,2.9-.5,4-1.6,1.1-1.1,1.6-2.4,1.6-4.1s-.5-3-1.6-4.1c-1.1-1.1-2.4-1.6-4-1.6s-3,.6-4,1.6-1.6,2.4-1.6,4.1.5,3,1.6,4.1c1.1,1.1,2.4,1.6,4,1.6Z"/>
        <path class="cls-4" d="M406.7,76.7c-.5,0-1-.2-1.3-.5s-.5-.8-.5-1.3.2-.9.5-1.3c.4-.4.8-.6,1.3-.6s.9.2,1.3.6c.4.4.5.8.5,1.3s-.2.9-.5,1.3c-.4.4-.8.5-1.3.5ZM405.3,95.4v-15.9h2.8v15.9h-2.8Z"/>
        <path class="cls-4" d="M412.3,95.4v-23.2h2.8v23.2h-2.8Z"/>
        <path class="cls-4" d="M420.7,76.7c-.5,0-1-.2-1.3-.5s-.5-.8-.5-1.3.2-.9.5-1.3c.4-.4.8-.6,1.3-.6s.9.2,1.3.6c.4.4.5.8.5,1.3s-.2.9-.5,1.3c-.4.4-.8.5-1.3.5ZM419.3,95.4v-15.9h2.8v15.9h-2.8Z"/>
        <path class="cls-4" d="M434.9,82.2h-4.2v8.6c0,.8.1,1.3.5,1.7s.8.5,1.4.5,1.4,0,2.4,0v2.5c-2.4.3-4.2.1-5.3-.6s-1.7-2.1-1.7-4v-8.6h-3.1v-2.7h3.1v-3.6l2.8-.8v4.4h4.2v2.7h0Z"/>
        <path class="cls-4" d="M450.5,79.6h2.8v15.9h-2.8v-2.7c-1.4,2.1-3.4,3.1-6,3.1s-4.1-.8-5.7-2.4c-1.6-1.6-2.4-3.6-2.4-5.9s.8-4.3,2.4-5.9c1.6-1.6,3.5-2.4,5.7-2.4s4.6,1.1,6,3.1c0,0,0-2.7,0-2.7ZM444.9,93.2c1.6,0,3-.5,4-1.6,1.1-1.1,1.6-2.4,1.6-4.1s-.5-3-1.6-4.1c-1.1-1.1-2.4-1.6-4-1.6s-2.9.6-4,1.6-1.6,2.4-1.6,4.1.5,3,1.6,4.1c1.1,1.1,2.4,1.6,4,1.6Z"/>
        <path class="cls-4" d="M472.1,91.7c-.6,1.1-1.4,2-2.5,2.7-1,.7-2.2,1.2-3.5,1.3v1.1c.8.2,1.5.5,2,.9.5.4.8,1,.8,1.6,0,2.2-2.2,3.1-6.7,2.9v-2.1c2.8.2,4.2-.1,4.2-1s-.9-1-2.6-1.1v-2.3c-2.1-.3-3.8-1.2-5.2-2.7s-2-3.4-2-5.6.8-4.3,2.4-5.9,3.6-2.4,6-2.4,3,.4,4.2,1.1,2.2,1.8,2.8,3l-2.3,1.3c-.4-.8-1-1.5-1.9-2s-1.8-.8-2.8-.8c-1.6,0-2.9.5-4,1.6-1.1,1.1-1.6,2.4-1.6,4s.5,2.9,1.6,4c1.1,1.1,2.4,1.6,4,1.6s2-.2,2.9-.8,1.5-1.2,1.9-2l2.4,1.4h0Z"/>
        <path class="cls-4" d="M487.8,79.6h2.8v15.9h-2.8v-2.7c-1.4,2.1-3.4,3.1-6,3.1s-4.1-.8-5.7-2.4c-1.6-1.6-2.4-3.6-2.4-5.9s.8-4.3,2.4-5.9c1.6-1.6,3.5-2.4,5.7-2.4s4.6,1.1,6,3.1c0,0,0-2.7,0-2.7ZM482.1,93.2c1.6,0,3-.5,4-1.6,1.1-1.1,1.6-2.4,1.6-4.1s-.5-3-1.6-4.1c-1.1-1.1-2.4-1.6-4-1.6s-2.9.6-4,1.6-1.6,2.4-1.6,4.1.5,3,1.6,4.1c1.1,1.1,2.4,1.6,4,1.6ZM482.1,76.5c-.8-.6-1.3-.9-1.7-.9s-.6.6-.6,1.6h-2.3c0-1.3.2-2.4.8-3.1.5-.7,1.1-1,1.8-1,.7,0,1.5.3,2.3.9.8.6,1.4.9,1.7.9.4,0,.6-.6.6-1.6h2.3c0,1.3-.2,2.4-.7,3.1-.5.7-1.1,1-1.8,1s-1.5-.3-2.3-.9h0Z"/>
        <path class="cls-4" d="M508.1,93.4c-1.6,1.6-3.6,2.4-5.9,2.4s-4.3-.8-5.9-2.4c-1.6-1.6-2.4-3.6-2.4-5.9s.8-4.3,2.4-5.9,3.6-2.4,5.9-2.4,4.3.8,5.9,2.4c1.6,1.6,2.5,3.6,2.5,5.9s-.8,4.3-2.5,5.9ZM502.2,93.2c1.6,0,2.9-.5,4-1.6s1.6-2.4,1.6-4-.5-2.9-1.6-4-2.4-1.6-4-1.6-2.9.5-4,1.6-1.6,2.4-1.6,4,.5,2.9,1.6,4,2.4,1.6,4,1.6Z"/>
        <path class="cls-4" d="M523.7,88.8c.3,1.4.9,2.5,2,3.3,1,.8,2.3,1.2,3.8,1.2s3.6-.8,4.6-2.3l2.3,1.3c-1.5,2.4-3.9,3.6-7,3.6s-4.6-.8-6.1-2.4-2.4-3.6-2.4-6,.8-4.4,2.3-6c1.5-1.6,3.5-2.4,6-2.4s4.2.8,5.7,2.5c1.5,1.6,2.2,3.6,2.2,5.9s0,.8,0,1.2h-13.3,0ZM529.2,81.8c-1.5,0-2.7.4-3.7,1.2-1,.8-1.6,1.9-1.8,3.3h10.6c-.2-1.5-.8-2.7-1.8-3.4s-2.1-1.2-3.3-1.2h0Z"/>
        <path class="cls-4" d="M556.6,73.2c2,0,3.8.7,5.1,2.1s2,3.1,2,5.1-.7,3.7-2,5.1c-1.4,1.4-3.1,2.1-5.1,2.1h-5.1v7.9h-3v-22.2h8.1,0ZM556.6,84.8c1.2,0,2.2-.4,3-1.2.8-.8,1.2-1.9,1.2-3.1s-.4-2.3-1.2-3.1c-.8-.8-1.8-1.2-3-1.2h-5.1v8.8s5.1,0,5.1,0Z"/>
        <path class="cls-4" d="M569.4,82.2c.9-2,2.6-2.9,5-2.9v2.9c-1.3,0-2.5.3-3.5,1.1s-1.5,2-1.5,3.8v8.4h-2.8v-15.9h2.8v2.7Z"/>
        <path class="cls-4" d="M578.1,88.8c.3,1.4.9,2.5,2,3.3,1,.8,2.3,1.2,3.8,1.2s3.6-.8,4.6-2.3l2.3,1.3c-1.5,2.4-3.9,3.6-7,3.6s-4.6-.8-6.1-2.4-2.4-3.6-2.4-6,.8-4.4,2.3-6c1.5-1.6,3.5-2.4,6-2.4s4.2.8,5.7,2.5c1.5,1.6,2.2,3.6,2.2,5.9s0,.8,0,1.2h-13.3,0ZM583.6,81.8c-1.5,0-2.7.4-3.7,1.2-1,.8-1.6,1.9-1.8,3.3h10.6c-.2-1.5-.8-2.7-1.8-3.4s-2.1-1.2-3.3-1.2h0Z"/>
        <path class="cls-4" d="M596.4,83.8c0,.6.3,1.1.9,1.4s1.4.7,2.2.9,1.7.5,2.6.8c.9.3,1.6.7,2.2,1.4.6.7.9,1.6.9,2.7s-.6,2.6-1.7,3.5-2.5,1.3-4.3,1.3-2.9-.3-4-1-1.9-1.6-2.3-2.7l2.4-1.4c.2.8.7,1.4,1.4,1.8.7.4,1.5.7,2.5.7s1.7-.2,2.2-.5.9-.9.9-1.6-.3-1.1-.9-1.5c-.6-.4-1.3-.7-2.2-.9-.9-.3-1.7-.5-2.6-.8s-1.6-.7-2.2-1.4-.9-1.5-.9-2.6.5-2.5,1.6-3.4,2.4-1.3,4-1.3,2.4.3,3.5.9,1.8,1.4,2.3,2.4l-2.3,1.3c-.6-1.3-1.7-2-3.4-2s-1.5.2-2,.5-.8.9-.8,1.5h0Z"/>
        <path class="cls-4" d="M615.6,95.9c-2.4,0-4.4-.8-6-2.4s-2.4-3.6-2.4-5.9.8-4.3,2.4-5.9,3.6-2.4,6-2.4,3,.4,4.2,1.1,2.2,1.8,2.8,3l-2.3,1.3c-.4-.8-1-1.5-1.9-2-.8-.5-1.8-.8-2.8-.8-1.6,0-2.9.5-4,1.6s-1.6,2.4-1.6,4,.5,2.9,1.6,4c1.1,1.1,2.4,1.6,4,1.6s2-.2,2.9-.8,1.5-1.2,1.9-2l2.3,1.4c-.7,1.2-1.7,2.2-2.9,3-1.3.8-2.7,1.1-4.2,1.1h0Z"/>
        <path class="cls-4" d="M628.3,82.2c.9-2,2.6-2.9,5-2.9v2.9c-1.3,0-2.5.3-3.5,1.1s-1.5,2-1.5,3.8v8.4h-2.8v-15.9h2.8v2.7Z"/>
        <path class="cls-4" d="M637.3,76.7c-.5,0-1-.2-1.3-.5-.4-.4-.5-.8-.5-1.3s.2-.9.5-1.3.8-.6,1.3-.6.9.2,1.3.6c.4.4.5.8.5,1.3s-.2.9-.5,1.3-.8.5-1.3.5ZM635.9,95.4v-15.9h2.8v15.9h-2.8Z"/>
        <path class="cls-4" d="M657.5,91.7c-.6,1.1-1.4,2-2.5,2.7-1,.7-2.2,1.2-3.5,1.3v1.1c.8.2,1.5.5,2,.9.5.4.8,1,.8,1.6,0,2.2-2.2,3.1-6.7,2.9v-2.1c2.8.2,4.2-.1,4.2-1s-.9-1-2.6-1.1v-2.3c-2.1-.3-3.8-1.2-5.2-2.7-1.3-1.5-2-3.4-2-5.6s.8-4.3,2.4-5.9,3.6-2.4,6-2.4,3,.4,4.2,1.1,2.2,1.8,2.8,3l-2.3,1.3c-.4-.8-1-1.5-1.9-2-.8-.5-1.8-.8-2.8-.8-1.6,0-2.9.5-4,1.6s-1.6,2.4-1.6,4,.5,2.9,1.6,4c1.1,1.1,2.4,1.6,4,1.6s2-.2,2.9-.8,1.5-1.2,1.9-2l2.3,1.4h0Z"/>
        <path class="cls-4" d="M673.2,79.6h2.8v15.9h-2.8v-2.7c-1.4,2.1-3.4,3.1-6,3.1s-4.1-.8-5.7-2.4c-1.6-1.6-2.3-3.6-2.3-5.9s.8-4.3,2.3-5.9c1.6-1.6,3.5-2.4,5.7-2.4s4.6,1.1,6,3.1c0,0,0-2.7,0-2.7ZM667.5,93.2c1.6,0,3-.5,4-1.6,1.1-1.1,1.6-2.4,1.6-4.1s-.5-3-1.6-4.1c-1.1-1.1-2.4-1.6-4-1.6s-2.9.6-4,1.6-1.6,2.4-1.6,4.1.5,3,1.6,4.1c1.1,1.1,2.4,1.6,4,1.6ZM667.5,76.5c-.8-.6-1.3-.9-1.7-.9s-.6.6-.6,1.6h-2.3c0-1.3.2-2.4.8-3.1.5-.7,1.1-1,1.8-1,.7,0,1.5.3,2.3.9.8.6,1.4.9,1.7.9.4,0,.6-.6.6-1.6h2.3c0,1.3-.2,2.4-.7,3.1s-1.1,1-1.8,1-1.5-.3-2.3-.9h0Z"/>
        <path class="cls-4" d="M693.5,93.4c-1.6,1.6-3.6,2.4-5.9,2.4s-4.3-.8-5.9-2.4-2.4-3.6-2.4-5.9.8-4.3,2.4-5.9,3.6-2.4,5.9-2.4,4.3.8,5.9,2.4c1.6,1.6,2.5,3.6,2.5,5.9s-.8,4.3-2.5,5.9ZM687.6,93.2c1.6,0,2.9-.5,4-1.6s1.6-2.4,1.6-4-.5-2.9-1.6-4-2.4-1.6-4-1.6-2.9.5-4,1.6c-1.1,1.1-1.6,2.4-1.6,4s.5,2.9,1.6,4,2.4,1.6,4,1.6Z"/>
        <path class="cls-4" d="M168.9,117.3c2.2,0,4.1.8,5.7,2.4,1.6,1.6,2.4,3.6,2.4,5.9s-.8,4.3-2.4,5.9-3.5,2.4-5.7,2.4-4.6-1.1-6-3.1v9.1h-2.8v-22.2h2.8v2.7c1.4-2.1,3.4-3.1,6-3.1ZM168.6,131.3c1.6,0,2.9-.5,4-1.6,1.1-1.1,1.6-2.4,1.6-4.1s-.5-3-1.6-4.1c-1.1-1.1-2.4-1.6-4-1.6s-2.9.6-4,1.6-1.6,2.4-1.6,4.1.5,3,1.6,4.1,2.4,1.6,4,1.6Z"/>
        <path class="cls-4" d="M193.4,117.7h2.8v15.9h-2.8v-2.7c-1.4,2.1-3.4,3.1-6,3.1s-4.1-.8-5.7-2.4c-1.6-1.6-2.4-3.6-2.4-5.9s.8-4.3,2.4-5.9c1.6-1.6,3.5-2.4,5.7-2.4s4.6,1.1,6,3.1v-2.7ZM187.8,131.3c1.6,0,2.9-.5,4-1.6,1.1-1.1,1.6-2.4,1.6-4.1s-.5-3-1.6-4.1c-1.1-1.1-2.4-1.6-4-1.6s-2.9.6-4,1.6-1.6,2.4-1.6,4.1.5,3,1.6,4.1,2.4,1.6,4,1.6Z"/>
        <path class="cls-4" d="M203.1,120.3c.9-2,2.6-2.9,4.9-2.9v2.9c-1.4,0-2.5.3-3.5,1.1s-1.5,2-1.5,3.8v8.4h-2.8v-15.9h2.8v2.7h0Z"/>
        <path class="cls-4" d="M223.1,117.7h2.8v15.9h-2.8v-2.7c-1.4,2.1-3.4,3.1-6,3.1s-4.1-.8-5.7-2.4c-1.6-1.6-2.4-3.6-2.4-5.9s.8-4.3,2.4-5.9c1.6-1.6,3.5-2.4,5.7-2.4s4.6,1.1,6,3.1v-2.7ZM217.4,131.3c1.6,0,2.9-.5,4-1.6,1.1-1.1,1.6-2.4,1.6-4.1s-.5-3-1.6-4.1c-1.1-1.1-2.4-1.6-4-1.6s-2.9.6-4,1.6-1.6,2.4-1.6,4.1.5,3,1.6,4.1,2.4,1.6,4,1.6Z"/>
        <path class="cls-4" d="M260.3,121.6v1.7c0,3.2-1,5.8-3,7.7-2,2-4.7,2.9-7.9,2.9s-6.3-1.1-8.5-3.4c-2.2-2.2-3.4-5-3.4-8.2s1.1-6,3.4-8.2,5-3.4,8.3-3.4,4,.5,5.7,1.4c1.7.9,3.1,2.2,4,3.8l-3.8,2.2c-.5-.9-1.3-1.7-2.4-2.2-1.1-.6-2.3-.9-3.6-.9-2.1,0-3.9.7-5.2,2.1-1.4,1.4-2.1,3.1-2.1,5.2s.7,3.8,2.1,5.2c1.4,1.4,3.2,2,5.5,2s3.1-.4,4.2-1.1,1.9-1.8,2.3-3.1h-6.7v-3.9h11.2Z"/>
        <path class="cls-4" d="M267.3,120.4c.4-1,1-1.8,1.9-2.3s1.9-.8,2.9-.8v4.6c-1.2-.2-2.4.1-3.4.8s-1.5,1.8-1.5,3.3v7.6h-4.1v-15.9h4.1v2.7h0Z"/>
        <path class="cls-4" d="M285,117.7h4.1v15.9h-4.1v-1.8c-1,1.5-2.6,2.2-4.7,2.2s-3.2-.6-4.3-1.8c-1.1-1.2-1.7-2.8-1.7-4.8v-9.8h4.1v9.2c0,1.1.3,1.9.9,2.4.6.6,1.3.8,2.3.8s1.9-.3,2.5-1c.6-.7,1-1.6,1-2.9v-8.6h0Z"/>
        <path class="cls-4" d="M302.1,117.2c2.1,0,4,.8,5.5,2.4,1.5,1.6,2.3,3.6,2.3,5.9s-.8,4.3-2.3,5.9c-1.5,1.6-3.3,2.4-5.5,2.4s-3.9-.8-5.1-2.3v8.2h-4.1v-22.2h4.1v1.9c1.2-1.6,2.9-2.3,5.1-2.3h0ZM298.2,128.8c.8.8,1.9,1.2,3.1,1.2s2.3-.4,3.2-1.2c.8-.8,1.2-1.9,1.2-3.2s-.4-2.4-1.2-3.2c-.8-.8-1.9-1.2-3.2-1.2s-2.3.4-3.1,1.2c-.8.8-1.2,1.9-1.2,3.2s.4,2.4,1.2,3.2Z"/>
        <path class="cls-4" d="M326.2,131.6c-1.6,1.6-3.6,2.4-6,2.4s-4.3-.8-6-2.4c-1.6-1.6-2.4-3.6-2.4-5.9s.8-4.3,2.4-5.9c1.6-1.6,3.6-2.4,6-2.4s4.3.8,6,2.4,2.5,3.6,2.5,5.9-.8,4.3-2.5,5.9ZM317.2,128.8c.8.8,1.8,1.2,3.1,1.2s2.2-.4,3.1-1.2,1.2-1.9,1.2-3.1-.4-2.3-1.2-3.1c-.8-.8-1.9-1.2-3.1-1.2s-2.2.4-3.1,1.2c-.8.8-1.2,1.9-1.2,3.1s.4,2.3,1.2,3.1Z"/>
        <path class="cls-4" d="M335,122.2c0,.4.3.8.8,1s1.2.5,2,.7c.8.2,1.6.5,2.4.8.8.3,1.5.8,2,1.5s.8,1.6.8,2.7c0,1.6-.6,2.9-1.8,3.8-1.2.9-2.7,1.3-4.6,1.3-3.3,0-5.5-1.3-6.7-3.8l3.6-2c.5,1.4,1.5,2.1,3.1,2.1s2.2-.5,2.2-1.4-.3-.8-.8-1c-.6-.3-1.2-.5-2-.7-.8-.2-1.6-.5-2.4-.8-.8-.3-1.5-.8-2-1.5s-.8-1.6-.8-2.6c0-1.6.6-2.8,1.7-3.7,1.1-.9,2.6-1.3,4.3-1.3s2.5.3,3.5.9c1.1.6,1.9,1.4,2.5,2.5l-3.5,1.9c-.5-1.1-1.4-1.6-2.5-1.6s-1,.1-1.3.3c-.4.2-.5.6-.5.9h0Z"/>
        <path class="cls-4" d="M358.5,129.4h9.4v4.2h-13.8v-22.2h13.6v4.2h-9.2v4.7h8.4v4.1h-8.4v5h0Z"/>
        <path class="cls-4" d="M374.5,122.2c0,.4.3.8.8,1s1.2.5,2,.7c.8.2,1.6.5,2.4.8.8.3,1.5.8,2,1.5s.8,1.6.8,2.7c0,1.6-.6,2.9-1.8,3.8-1.2.9-2.7,1.3-4.6,1.3-3.3,0-5.5-1.3-6.7-3.8l3.6-2c.5,1.4,1.5,2.1,3.1,2.1s2.2-.5,2.2-1.4-.3-.8-.8-1c-.6-.3-1.2-.5-2-.7-.8-.2-1.6-.5-2.4-.8-.8-.3-1.5-.8-2-1.5s-.8-1.6-.8-2.6c0-1.6.6-2.8,1.7-3.7,1.1-.9,2.6-1.3,4.3-1.3s2.5.3,3.5.9c1.1.6,1.9,1.4,2.5,2.5l-3.5,1.9c-.5-1.1-1.4-1.6-2.5-1.6s-1,.1-1.3.3c-.4.2-.5.6-.5.9h0Z"/>
        <path class="cls-4" d="M394.8,117.2c2.1,0,4,.8,5.5,2.4,1.5,1.6,2.3,3.6,2.3,5.9s-.8,4.3-2.3,5.9c-1.5,1.6-3.3,2.4-5.5,2.4s-3.9-.8-5.1-2.3v8.2h-4.1v-22.2h4.1v1.9c1.2-1.6,2.9-2.3,5.1-2.3h0ZM390.9,128.8c.8.8,1.9,1.2,3.1,1.2s2.3-.4,3.2-1.2c.8-.8,1.2-1.9,1.2-3.2s-.4-2.4-1.2-3.2c-.8-.8-1.9-1.2-3.2-1.2s-2.3.4-3.1,1.2c-.8.8-1.2,1.9-1.2,3.2s.4,2.4,1.2,3.2Z"/>
        <path class="cls-4" d="M408.9,127.3c.5,2,2,3,4.5,3s2.8-.5,3.6-1.6l3.3,1.9c-1.6,2.3-3.9,3.4-6.9,3.4s-4.7-.8-6.3-2.4c-1.6-1.6-2.4-3.6-2.4-6s.8-4.4,2.4-6,3.6-2.4,6-2.4,4.2.8,5.8,2.4,2.3,3.6,2.3,6,0,1.1-.2,1.7h-12,0ZM408.8,124.1h8.1c-.2-1.1-.7-1.9-1.5-2.4-.7-.5-1.6-.8-2.5-.8s-2,.3-2.7.8-1.2,1.3-1.4,2.4h0Z"/>
        <path class="cls-4" d="M431.3,134c-2.4,0-4.4-.8-6-2.4-1.6-1.6-2.4-3.6-2.4-6s.8-4.4,2.4-6,3.6-2.4,6-2.4,3,.4,4.2,1.1,2.2,1.7,2.9,3l-3.5,2.1c-.3-.7-.8-1.2-1.4-1.6-.6-.4-1.4-.6-2.2-.6-1.2,0-2.2.4-3,1.2s-1.2,1.9-1.2,3.1.4,2.3,1.2,3.1c.8.8,1.8,1.2,3,1.2s1.6-.2,2.2-.6,1.1-.9,1.5-1.5l3.6,2c-.7,1.2-1.7,2.2-3,3-1.3.8-2.7,1.1-4.2,1.1h0Z"/>
        <path class="cls-4" d="M442.6,115.8c-.7,0-1.3-.2-1.8-.8s-.8-1.1-.8-1.8.2-1.3.8-1.8,1.1-.8,1.8-.8,1.3.2,1.8.8c.5.5.8,1.1.8,1.8s-.2,1.3-.8,1.8c-.5.5-1.1.8-1.8.8ZM440.6,133.6v-15.9h4.1v15.9h-4.1Z"/>
        <path class="cls-4" d="M460.5,117.7h4.1v15.9h-4.1v-1.9c-1.2,1.6-3,2.3-5.2,2.3s-3.9-.8-5.5-2.4c-1.5-1.6-2.3-3.6-2.3-5.9s.8-4.3,2.3-5.9c1.5-1.6,3.3-2.4,5.5-2.4s4,.8,5.2,2.3v-1.9h0ZM453,128.8c.8.8,1.9,1.2,3.1,1.2s2.3-.4,3.2-1.2c.8-.8,1.2-1.9,1.2-3.2s-.4-2.4-1.2-3.2c-.8-.8-1.9-1.2-3.2-1.2s-2.3.4-3.1,1.2c-.8.8-1.2,1.9-1.2,3.2s.4,2.4,1.2,3.2Z"/>
        <path class="cls-4" d="M470.4,115.8c-.7,0-1.3-.2-1.8-.8s-.8-1.1-.8-1.8.2-1.3.8-1.8,1.1-.8,1.8-.8,1.3.2,1.8.8c.5.5.8,1.1.8,1.8s-.2,1.3-.8,1.8c-.5.5-1.1.8-1.8.8ZM468.3,133.6v-15.9h4.1v15.9h-4.1Z"/>
        <path class="cls-4" d="M479.8,122.2c0,.4.3.8.8,1s1.2.5,2,.7c.8.2,1.6.5,2.4.8.8.3,1.5.8,2,1.5s.8,1.6.8,2.7c0,1.6-.6,2.9-1.8,3.8-1.2.9-2.7,1.3-4.6,1.3-3.3,0-5.5-1.3-6.7-3.8l3.6-2c.5,1.4,1.5,2.1,3.1,2.1s2.2-.5,2.2-1.4-.3-.8-.8-1c-.6-.3-1.2-.5-2-.7-.8-.2-1.6-.5-2.4-.8-.8-.3-1.5-.8-2-1.5s-.8-1.6-.8-2.6c0-1.6.6-2.8,1.7-3.7,1.1-.9,2.6-1.3,4.3-1.3s2.5.3,3.5.9c1.1.6,1.9,1.4,2.5,2.5l-3.5,1.9c-.5-1.1-1.4-1.6-2.5-1.6s-1,.1-1.3.3c-.4.2-.5.6-.5.9h0Z"/>
        <path class="cls-4" d="M494.7,133.2c-.5.5-1.2.8-1.9.8s-1.4-.3-1.9-.8-.8-1.2-.8-1.9.3-1.4.8-1.9,1.2-.8,1.9-.8,1.4.3,1.9.8c.5.5.8,1.2.8,1.9s-.3,1.4-.8,1.9Z"/>
      </g>
    </g>
  </g>
</svg>